<?xml version="1.0" encoding="UTF-8"?><svg id="Calque_1" xmlns="http://www.w3.org/2000/svg" viewBox="0 0 4000 929.62"><defs><style>.cls-1,.cls-2,.cls-3,.cls-4,.cls-5,.cls-6,.cls-7,.cls-8,.cls-9,.cls-10{stroke-width:0px;}.cls-1,.cls-2,.cls-4{fill-rule:evenodd;}.cls-1,.cls-9{fill:#e3000b;}.cls-4{fill:#ffed00;}.cls-5{fill:#fdc10a;}.cls-6{fill:#fff;}.cls-7{fill:#010100;}.cls-8{fill:#1e5aa8;}.cls-10{fill:#feed00;}</style></defs><path class="cls-3" d="M2323.26,333.82c-7.88-34.88-25.88-62.99-55.74-82.21-27-17.36-57.19-25.36-89.65-25.58-44.32-.3-88.65-1.9-131.15,14.35-34.28,13.13-64.03,33.28-90.69,58.56,10.97-10.23,18.93-46.26,25.1-59.94,21.08-46.74,19.74-92.77-10.82-134.35-32.83-44.66-79.24-60.35-133.23-49.71-16.44,3.23-31.27,5.43-48.23,1.67-47.93-10.63-95.97-5.24-143.05,5.95-52.88,12.57-96.79,39.19-124.94,87.61-5.35,9.22-10.56,18.52-16.47,28.85-12.23-49.05-37.26-85.6-86.71-97.79-54.77-13.5-103.78-2.23-142.12,42.61-8.81-6.88-14.02-17.14-23.17-23.65-51.35-36.59-137.39-30.86-174.88,10.97-5.84,6.54-10.97,6.32-16.84-.07-14.24-15.47-31.87-25.25-52.32-30.12-50.53-12.05-95.53-3.12-132.23,35.47-5.84,6.14-8.48,5.61-13.57-.11-31.98-35.73-72.81-44.96-118.43-38.08-30.42,4.57-57.19,16.7-76.23,42.02-5.69,7.59-9,6.95-14.87-.04-7.29-8.7-14.95-17.14-24.88-23.57-18.48-11.97-38.86-16.17-60.13-19.11-39.08-5.39-73.14,5.35-103.56,29.67-30.45,24.39-48.67,57.52-66.04,91.36-1.78,3.46-2.27,9.56-7.77,8.52-4.42-.86-3.35-6.32-4.2-9.85-17.03-69.68-60.01-116.27-128.69-120.48-74.4-4.54-129.29,35.55-146.73,107.05-7.88,32.28-11.04,65.41-15.62,98.24-14.24,102-28.82,203.92-43.32,305.84-5.73,40.2,2.94,76.23,31.35,106.2,35.29,37.22,80.5,41.13,126.57,32.16,43.02-8.37,72.1-37.11,87.75-77.94,4.35-11.38,9.67-13.8,20.71-11.19,11.94,2.79,24.36,6.17,36.63,3.2,12.68-3.12,18.15,1.6,22.2,13.35,10.86,31.42,31.87,55.59,62.99,66.26,57.04,19.56,110.03,12.35,153.35-33.73,4.95-5.28,6.84-3.38,10.56.82,7.62,8.59,15.65,16.66,25.4,23.13,25.4,16.96,53.62,19.52,83.07,19.19,36.11-.41,64.85-15.36,88.53-41.31,5.09-5.58,7.51-6.06,12.27.04,41.94,53.95,145.31,56.82,192.98,3.87,5.06-5.61,8.29-5.09,13.39-.15,7.29,7.1,14.69,14.5,23.31,19.71,52.32,31.72,121.26,21.64,161.94-23.54,5.47-6.1,7.73-4.8,12.2.52,18.93,22.35,43.24,35.66,72.17,39.45,8.89,1.15,9.37,3.68,8.44,11.71-7.18,62.62,17.81,105.64,70.35,126.5,58.45,23.17,118.06,18.15,175.1-7.73,52.91-24.02,85.52-67.15,107.42-119.58,9.78-23.43,16.58-47.78,23.98-74.26,46.63,73.29,110.58,76.6,183.06,49.53-2.16,7.33-3.94,13.42-5.73,19.48-20.67,70.54,19.89,134.35,92.81,143.79,42.76,5.54,85.89,3.64,128.73-.82,50.09-5.24,94.71-23.31,132.34-57.45,48.64-44.14,69.31-101.7,79.24-164.5,11.94-75.63,24.06-151.26,35.85-226.93,4.87-31.16,9.3-62.28,2.16-93.89l.04.04ZM616.11,213.75c-5.65,44.73-12.46,89.32-18.7,133.94-7.62,54.33-15.21,108.69-22.83,163.01-4.35,31.16-8.7,62.32-13.01,93.48-6.8,48.97-52.58,74.55-97.98,54.73-18.85-8.22-32.16-32.54-29.23-53.66,6.47-46.33,13.46-92.62,19.3-139.03,1.45-11.64,1.86-23.61,3.76-37.3-6.47,4.57-7.36,9.41-9.07,14.13-11.27,30.75-21.12,62.1-35.92,91.36-22.05,43.62-64.33,47.22-96.57,34.36-23.13-9.22-32.39-29.11-34.95-52.39-2.86-26.21-4.8-52.5-7.25-78.76-.37-4.05-.07-8.55-5.35-12.27-3.68,25.77-6.92,50.76-10.86,75.63-6.21,39.01-8.29,78.76-18.33,117.09-11.16,42.61-66.22,61.8-102.14,36.07-19.56-13.98-23.5-34.06-20.3-56.74,11.97-84.67,23.17-169.45,35.7-254.04,7.36-49.64,11.42-99.84,22.5-148.81,11.86-52.43,77.01-73.88,118.77-40.12,15.28,12.35,22.61,29.78,27.03,48.15,14.58,60.31,28.56,120.77,42.76,181.16.86,3.61.07,8.81,4.61,9.63,4.98.89,5.28-4.72,6.92-7.81,31.75-61.13,63.29-122.41,95.15-183.5,13.24-25.4,29.78-48.38,58.19-58.08,47.93-16.32,95.64,8.03,87.79,69.79l.04-.04ZM826.28,204.64c-10.3,72.77-21.01,145.5-31.23,218.31-8.33,59.35-16.51,118.69-24.1,178.15-5.13,40.23-29.26,63.29-67.97,63.36-43.13.07-65.03-27.14-58.49-69.72,9.37-60.91,16.99-122.04,25.66-183.06,10.37-73.21,20-146.54,31.9-219.5,7.88-48.3,66.26-70.57,105.64-41.35,17.77,13.2,21.6,32.83,18.63,53.84l-.04-.04ZM1229.98,195.68c-5.17,42.65-11.19,85.15-17.07,127.73-6.8,49.27-13.8,98.54-20.75,147.81-6.54,46.29-12.46,92.7-19.97,138.88-6.1,37.41-30.97,56.59-68.2,54.25-32.02-2.01-46.29-24.47-54.85-51.16-14.8-46.11-28.3-92.66-42.24-139.07-1.45-4.8-2.19-9.85-7.59-16.99-5.54,39.19-10.49,75.26-15.8,111.25-2.53,17.22-3.64,34.69-8.63,51.54-12.31,41.61-69.05,60.13-103.45,33.24-17.81-13.91-22.2-33.06-19.08-54.88,8.92-62.73,17.29-125.53,26.14-188.26,10.08-71.54,20.45-143.08,30.71-214.62.22-1.67.74-3.31,1.15-4.98,10.67-44.99,48.15-63.96,90.69-45.51,15.47,6.69,24.47,19.63,29.23,35.25,15.25,50.01,30.12,100.14,45.14,150.19.59,2.05,1.26,4.05,1.93,6.06.67,1.93.89,4.57,3.76,4.16,2.45-.33,3.12-2.68,3.42-4.72,1.67-11.38,3.23-22.72,4.8-34.1,4.61-33.28,9.3-66.52,13.72-99.84,1.3-9.85,4.39-19.08,8.11-28.11,7.06-17.29,19.48-28.67,38.15-32.5,13.94-2.86,28.04-3.23,41.87-.19,26.81,5.91,42.17,27.07,38.82,54.62l-.04-.04ZM1293.75,661.78c-28.07-6.84-42.72-31.75-38.63-60.54,10.75-75.82,21.08-151.67,31.87-227.45,8.55-60.2,16.62-120.48,26.55-180.45,8.07-48.71,64.48-71.39,105.16-43.13,15.06,10.49,20.82,26.36,20.23,44.73-3.94,29.08-7.85,58.12-11.9,87.2-7.06,50.53-14.32,101.07-21.34,151.64-7.99,57.3-15.06,114.75-23.91,171.94-8.11,52.5-48.3,65.82-88.01,56.11v-.04ZM1889.43,401.27c-5.09,37.04-4.2,25.92-9.97,62.84-7.25,46.18-15.02,92.33-22.01,138.55-5.99,39.53-30.86,61.91-69.79,61.8-32.54,1.93-64.29-21.12-56.3-67.38,14.06-81.25,19.08-114.82,31.9-196.29,6.88-43.58,36.51-66.08,80.28-61.09,31.68,3.61,50.53,28.3,45.92,61.58h-.04ZM1871.36,252.09c-24.13,6.21-46.55,1.56-64.77-16.84-16.66-16.84-16.62-17.1-39.68-11.01-12.61,3.31-25.4,2.53-38.11,2.38-41.87-.45-51.69,25.58-58.75,57.75-1.38,6.25,2.53,6.92,7.44,6.95,9.74.07,19.48-.78,29.11,2.34,14.87,4.8,23.98,14.99,26.74,29.78,8.4,44.84-15.58,82.99-62.95,83.25-21.16.11-20.41.93-23.91,21.75-13.42,80.54-21.94,161.9-40.75,241.47-7.44,31.46-19,61.65-38.19,88.5-25.32,35.4-60.54,52.54-102.63,56.93-19.04,2.01-38.19,1.78-57.19-2.45-32.24-7.21-48.3-26.92-45.85-57.45,2.27-28.33,24.5-48.3,55.33-49.6,4.24-.19,8.55.26,12.79-.11,20.27-1.67,35.58-10.6,43.62-30.12,11.45-27.81,15.62-57.37,20.53-86.71,7.59-45.29,14.28-90.73,21.42-136.09,1.86-11.75,3.87-23.5,5.99-35.21,1.23-6.69-.48-10.89-8.11-11.01-19.74-.3-36.14-5.95-42.8-27.03-7.77-24.54-4.09-47.26,11.97-67.27,10.63-13.2,25.51-21.6,42.24-20.45,16.58,1.15,18.48-7.4,20.71-19.86,4.95-27.7,13.16-54.51,26.18-79.65,22.05-42.54,59.23-63.1,104.56-71.17,19.26-3.42,38.75-5.84,58.42-4.13,11.49,0,23.02-.71,34.43.19,13.76,1.08,25.95,6.92,33.09,19,4.72,7.96,7.33,6.51,12.61,1.12,17.33-17.77,38.75-24.54,62.95-20.27,39.3,6.95,59.83,41.79,48.26,83.11-7.73,27.66-27.4,44.88-54.81,51.95l.11-.04ZM2261.2,387.37c-14.28,92.48-28.41,184.95-44.1,277.17-8.37,49.16-28.45,92.74-71.88,121.85-31.46,21.08-66.89,28.85-104.11,29.67-25.55.56-51.13-.15-76.67.19-20.64.26-39.15-4.83-47.41-25.25-8.89-21.86-5.58-43.69,9.44-62.47,12.46-15.58,29.6-22.5,49.34-22.76,19.15-.22,38.34,0,57.49-.07,29.64-.19,47.33-12.53,56-40.79,4.39-14.24,6.51-29.15,4.87-44.62-3.05,4.87-5.84,9.93-9.22,14.54-21.42,29.23-50.9,38.93-85.49,32.72-38.08-6.84-60.5-32.5-67.04-68.46-17.18-94.67-.48-181.53,69.38-252.52,36.51-37.07,81.47-56.33,134.2-55.37,20,.37,40.31-1.52,59.94,1.3,48.56,7.06,73.18,43.47,65.22,94.86h.04Z"/><path class="cls-7" d="M2057.65,513.12c1.56-38.78,8.44-74.78,28.48-107.2,8.59-13.87,20.82-21.83,37.63-22.61,8.03-.37,10.71,1.97,9.37,10.04-5.5,33.09-10.63,66.26-15.99,99.39-2.53,15.47-3.23,31.31-9.74,45.92-6.32,14.17-15.51,21.05-26.55,19.86-11.42-1.23-19.48-10.86-21.6-26.36-.93-6.73-1.15-13.53-1.6-19v-.04Z"/><path class="cls-6" d="M457.45,428.9c-6.47,4.57-7.36,9.41-9.07,14.13-11.27,30.75-21.12,62.1-35.92,91.36-22.05,43.62-64.33,47.22-96.57,34.36-23.13-9.22-32.39-29.11-34.95-52.39-2.86-26.21-4.8-52.5-7.25-78.76-.37-4.05-.07-8.55-5.35-12.27-3.68,25.77-6.92,50.76-10.86,75.63-6.21,39.01-8.29,78.76-18.33,117.09-11.16,42.61-66.22,61.8-102.14,36.07-19.56-13.98-23.5-34.06-20.3-56.74,11.97-84.67,23.17-169.45,35.7-254.04,7.36-49.64,11.42-99.84,22.5-148.81,11.86-52.43,77.01-73.88,118.77-40.12,15.28,12.35,22.61,29.78,27.03,48.15,14.58,60.31,28.56,120.77,42.76,181.16.86,3.61.07,8.81,4.61,9.63,4.98.89,5.28-4.72,6.92-7.81,31.75-61.13,63.29-122.41,95.15-183.5,13.24-25.4,29.78-48.38,58.19-58.08,47.93-16.32,95.64,8.03,87.79,69.79-5.65,44.73-12.46,89.32-18.7,133.94-7.62,54.33-15.21,108.69-22.83,163.01-4.35,31.16-8.7,62.32-13.01,93.48-6.8,48.97-52.58,74.55-97.98,54.73-18.85-8.22-32.16-32.54-29.23-53.66,6.47-46.33,13.46-92.62,19.3-139.03,1.45-11.64,1.86-23.61,3.76-37.3l.04-.04Z"/><path class="cls-6" d="M999.29,457.12c-5.54,39.19-10.49,75.26-15.8,111.25-2.53,17.22-3.64,34.69-8.63,51.54-12.31,41.61-69.05,60.13-103.45,33.24-17.81-13.91-22.16-33.06-19.08-54.88,8.92-62.73,17.29-125.53,26.14-188.26,10.08-71.54,20.45-143.08,30.71-214.62.22-1.67.74-3.31,1.15-4.98,10.67-44.99,48.15-63.96,90.69-45.51,15.47,6.69,24.47,19.63,29.23,35.25,15.25,50.01,30.12,100.14,45.14,150.19.59,2.05,1.26,4.05,1.93,6.06.67,1.93.89,4.57,3.76,4.16,2.45-.33,3.12-2.68,3.42-4.72,1.67-11.38,3.23-22.72,4.8-34.1,4.61-33.28,9.3-66.52,13.72-99.84,1.3-9.85,4.39-19.08,8.11-28.11,7.06-17.29,19.48-28.67,38.15-32.5,13.94-2.86,28.04-3.23,41.87-.19,26.81,5.91,42.17,27.07,38.82,54.62-5.17,42.65-11.19,85.15-17.07,127.73-6.8,49.27-13.8,98.54-20.75,147.81-6.54,46.29-12.46,92.7-19.97,138.88-6.1,37.41-30.94,56.59-68.2,54.25-32.02-2.01-46.29-24.47-54.85-51.16-14.8-46.11-28.3-92.66-42.24-139.07-1.45-4.8-2.19-9.85-7.59-16.99l-.04-.04Z"/><path class="cls-9" d="M1734.79,117.04c11.49,0,23.02-.71,34.43.19,13.76,1.08,25.95,6.92,33.09,19,4.72,7.96,7.33,6.51,12.61,1.12,17.33-17.77,38.75-24.54,62.95-20.27,39.3,6.95,59.83,41.79,48.26,83.11-7.73,27.66-27.4,44.88-54.81,51.95-24.13,6.21-46.55,1.56-64.77-16.84-16.66-16.84-16.62-17.1-39.68-11.01-12.61,3.31-25.4,2.53-38.11,2.38-41.87-.45-51.69,25.58-58.75,57.75-1.38,6.25,2.53,6.92,7.44,6.95,9.74.07,19.48-.78,29.11,2.34,14.87,4.8,23.98,14.99,26.74,29.78,8.4,44.84-15.58,82.99-62.95,83.25-21.16.11-20.41.93-23.91,21.75-13.42,80.54-21.94,161.9-40.75,241.47-7.44,31.46-19,61.65-38.19,88.5-25.32,35.4-60.54,52.54-102.63,56.93-19.04,2.01-38.19,1.78-57.19-2.45-32.24-7.21-48.3-26.92-45.85-57.45,2.27-28.33,24.5-48.3,55.33-49.6,4.24-.19,8.55.26,12.79-.11,20.27-1.67,35.58-10.6,43.62-30.08,11.45-27.81,15.62-57.37,20.53-86.71,7.59-45.29,14.28-90.73,21.42-136.09,1.86-11.75,3.87-23.5,5.99-35.21,1.23-6.69-.48-10.89-8.11-11.01-19.74-.3-36.14-5.95-42.8-27.03-7.77-24.54-4.09-47.26,11.97-67.27,10.63-13.2,25.51-21.6,42.24-20.45,16.58,1.15,18.48-7.4,20.71-19.86,4.95-27.7,13.16-54.51,26.18-79.68,22.05-42.54,59.23-63.1,104.56-71.17,19.26-3.42,38.75-5.84,58.42-4.13l.11-.04Z"/><path class="cls-9" d="M2094.17,620.28c-3.05,4.87-5.84,9.93-9.22,14.54-21.42,29.23-50.9,38.93-85.49,32.72-38.08-6.84-60.5-32.5-67.04-68.46-17.18-94.67-.48-181.53,69.38-252.52,36.51-37.07,81.47-56.33,134.2-55.37,20,.37,40.31-1.52,59.94,1.3,48.56,7.06,73.18,43.47,65.22,94.86-14.28,92.48-28.41,184.95-44.1,277.17-8.37,49.16-28.45,92.74-71.88,121.85-31.46,21.08-66.89,28.85-104.11,29.67-25.55.56-51.13-.15-76.67.19-20.64.26-39.15-4.83-47.41-25.25-8.89-21.86-5.58-43.69,9.44-62.47,12.46-15.58,29.6-22.5,49.34-22.76,19.15-.22,38.34,0,57.49-.07,29.64-.19,47.33-12.53,56-40.79,4.39-14.24,6.51-29.15,4.87-44.62h.04ZM2057.65,513.12c.45,5.47.67,12.27,1.6,19,2.12,15.47,10.19,25.1,21.6,26.36,11.04,1.19,20.23-5.69,26.55-19.86,6.51-14.61,7.21-30.49,9.74-45.92,5.39-33.13,10.52-66.26,15.99-99.39,1.34-8.07-1.38-10.41-9.37-10.04-16.81.82-29.08,8.74-37.63,22.61-20.04,32.42-26.92,68.42-28.48,107.2v.04Z"/><path class="cls-6" d="M702.97,664.46c-43.13.07-65.03-27.14-58.49-69.72,9.37-60.91,16.99-122.04,25.66-183.06,10.37-73.21,20-146.54,31.9-219.5,7.88-48.3,66.26-70.57,105.64-41.35,17.77,13.2,21.6,32.83,18.63,53.84-10.3,72.77-21.01,145.5-31.23,218.31-8.33,59.35-16.51,118.69-24.1,178.15-5.13,40.23-29.26,63.29-67.97,63.36l-.04-.04Z"/><path class="cls-6" d="M1438.92,194.9c-3.94,29.08-7.85,58.12-11.9,87.2-7.06,50.53-14.32,101.07-21.34,151.64-7.99,57.3-15.06,114.75-23.91,171.94-8.11,52.5-48.3,65.82-88.01,56.11-28.07-6.84-42.72-31.75-38.63-60.54,10.75-75.82,21.08-151.67,31.87-227.45,8.55-60.2,16.62-120.48,26.55-180.45,8.07-48.71,64.48-71.39,105.16-43.13,15.06,10.49,20.82,26.36,20.23,44.73v-.04Z"/><path class="cls-8" d="M1787.66,664.46c-32.54,1.93-64.29-21.12-56.3-67.38,14.06-81.25,19.08-114.82,31.9-196.29,6.88-43.58,36.51-66.08,80.28-61.09,31.68,3.61,50.53,28.3,45.92,61.58-5.09,37.04-4.2,25.92-9.97,62.84-7.25,46.18-15.02,92.33-22.01,138.55-5.99,39.53-30.86,61.91-69.79,61.8h-.04Z"/><path class="cls-10" d="M2374.31,329.17c-12.87-74.59-74.44-137.69-149.03-149.29-49.94-7.77-100.02-7.25-150.11.07-9.56,1.41-21.72,10.08-27.37,4.39-5.69-5.76-3.94-19.11-4.95-29.19-8.11-82.25-86.45-160.08-184.51-153.31-30.01,2.08-59.31,4.61-89.5.33-33.35-4.72-67.27-1-100.58,3.9-56.78,8.37-108.76,27.93-150.63,68.9-5.76,5.65-8.4,3.61-13.13-.82-30.23-28.41-65.33-44.81-107.57-46.74-38.75-1.78-75.48,3.27-109.62,22.57-5.69,3.2-10.75,5.76-18.63,1.56-63.4-33.8-127.8-33.73-192.35-3.09-5.06,2.42-8.89,3.12-14.2.52-60.94-30.01-121.89-30.9-182.42,1-7.14,3.76-12.57,4.16-19.78-.48-18.85-12.16-39.79-18.7-62.25-21.12-45.74-4.98-89.2,1.19-129.18,25.1-5.99,3.57-10.26,2.71-16.14-.86-51.54-31.27-106.57-32.42-162.49-15.73-32.91,9.85-59.57,30.75-82.51,56.07-5.91,6.54-9.44,7.33-15.54-.22-14.91-18.29-32.83-33.24-53.84-44.36-50.42-26.7-103.19-28.07-156.06-11.19-51.72,16.51-88.13,51.24-109.32,101.85-14.72,35.14-17.85,72.47-23.09,109.51-15.62,110.84-31.2,221.65-47.26,332.42-7.36,50.68,3.16,96.68,34.8,136.95,33.35,42.43,78.83,61.17,131.74,61.91,67.15.97,121.81-24.39,160.11-80.84,6.69-9.89,10.52-7.06,15.25.93,17.63,29.9,41.61,52.76,74.26,65.48,56.59,22.01,112.3,21.19,166.25-8.37,9.15-5.02,16.03-5.39,25.4.04,27,15.69,56.63,22.46,87.94,23.13,35.44.74,68.16-8.48,99.13-25.02,4.8-2.57,8.85-5.02,15.17-1.45,62.84,35.36,126.46,35.44,190.31,2.79,7.18-3.68,12.87-3.57,20.15.3,52.24,27.81,106.83,33.17,160.6,7.62,20.93-9.97,36.85-11.08,55.55.86,4.83,3.09,7.29,5.39,7.81,11.3,6.43,71.99,49.98,118.47,115.68,140.93,36.55,12.49,74.67,12.57,112.56,9.97,53.69-3.72,101.73-22.24,143.38-57.3,33.35-28.07,56.74-63.06,75.07-101.96,2.05-4.35,2.34-10.67,10.23-6.73,27.18,13.65,56.18,19.34,86.49,18.59,6.25-.15,7.7,2.6,8.33,8.25,4.05,35.29,17.07,66.45,42.95,91.66,28.78,28.07,62.54,44.84,103.04,47.86,22.12,1.64,44.25,1.67,70.98,1.52,27.78.67,60.01-.11,91.96-6.92,59.72-12.72,110.99-40.16,152.16-85.49,47.15-51.91,66.78-115.49,77.16-183.06,11.56-75.3,23.8-150.48,35.4-225.74,5.06-32.83,8.07-65.56,2.27-99.02h-.04ZM2321.1,427.71c-11.79,75.67-23.91,151.3-35.85,226.93-9.93,62.8-30.6,120.36-79.24,164.5-37.59,34.13-82.25,52.21-132.34,57.45-42.87,4.5-85.97,6.36-128.73.82-72.92-9.44-113.48-73.25-92.81-143.79,1.78-6.06,3.57-12.16,5.73-19.48-72.47,27.07-136.43,23.76-183.06-49.53-7.4,26.44-14.2,50.83-23.98,74.26-21.9,52.47-54.51,95.56-107.42,119.58-57.04,25.88-116.65,30.94-175.1,7.73-52.54-20.82-77.53-63.84-70.35-126.5.93-8.03.45-10.56-8.44-11.71-28.93-3.79-53.25-17.1-72.17-39.45-4.5-5.28-6.73-6.58-12.2-.52-40.68,45.18-109.65,55.26-161.94,23.54-8.59-5.21-16.03-12.61-23.31-19.71-5.09-4.98-8.29-5.5-13.39.15-47.71,52.95-151.08,50.09-192.98-3.87-4.76-6.1-7.14-5.61-12.27-.04-23.69,25.95-52.43,40.9-88.53,41.31-29.49.33-57.71-2.23-83.07-19.19-9.7-6.47-17.77-14.58-25.4-23.13-3.72-4.2-5.61-6.1-10.56-.82-43.32,46.11-96.31,53.32-153.35,33.73-31.12-10.67-52.13-34.88-62.99-66.26-4.05-11.75-9.56-16.44-22.2-13.35-12.27,3.01-24.69-.37-36.63-3.2-11.08-2.6-16.36-.19-20.71,11.19-15.65,40.83-44.73,69.57-87.75,77.94-46.03,8.96-91.29,5.06-126.57-32.16-28.41-29.97-37.07-66-31.35-106.2,14.5-101.96,29.08-203.88,43.32-305.84,4.57-32.87,7.73-66,15.62-98.24,17.48-71.5,72.36-111.59,146.73-107.05,68.68,4.2,111.7,50.79,128.69,120.48.86,3.53-.22,9.04,4.2,9.85,5.5,1.08,6.02-5.06,7.77-8.52,17.36-33.84,35.55-66.97,66.04-91.36,30.42-24.32,64.48-35.06,103.56-29.67,21.27,2.94,41.68,7.14,60.13,19.11,9.93,6.43,17.59,14.87,24.88,23.57,5.88,7.03,9.15,7.66,14.87.04,19-25.32,45.77-37.44,76.23-42.02,45.62-6.88,86.45,2.38,118.43,38.08,5.09,5.73,7.73,6.25,13.57.11,36.7-38.56,81.69-47.52,132.23-35.47,20.45,4.87,38.04,14.65,52.32,30.12,5.87,6.36,11.01,6.58,16.84.07,37.48-41.83,123.52-47.56,174.88-10.97,9.15,6.51,14.35,16.77,23.17,23.65,38.34-44.88,87.34-56.15,142.12-42.61,49.45,12.2,74.48,48.71,86.71,97.79,5.87-10.34,11.12-19.63,16.47-28.85,28.15-48.41,72.1-75.04,124.94-87.61,47.11-11.19,95.12-16.58,143.05-5.95,16.92,3.76,31.79,1.56,48.23-1.67,53.99-10.63,100.4,5.09,133.23,49.71,30.56,41.53,31.9,87.57,10.82,134.35-6.17,13.68-14.13,49.71-25.1,59.94,26.62-25.32,56.41-45.48,90.69-58.56,42.5-16.25,86.82-14.61,131.15-14.35,32.42.22,62.65,8.22,89.65,25.58,29.9,19.22,47.86,47.37,55.74,82.21,7.14,31.61,2.68,62.73-2.16,93.89l-.04-.04Z"/><path class="cls-10" d="M1959.9,155.52c-4.5-15.51-14.35-26.1-29.56-31.57-6.92-2.49-14.28-2.6-21.46-3.72-1.49-.22-2.27-.71-2.01-2.31.93-7.1,1.9-14.17,2.83-21.27-.41-1-.26-1.93.37-2.83.86-7.36-4.72-15.02-12.05-16.06-17.36-2.45-34.73-4.83-52.09-7.03-7.81-.97-15.39,5.17-16.21,12.75,0,.11.07.19.11.3,0,0-.11.07-.15.07-.19,1.34-.37,2.68-.56,4.05.41.67.33,1.3-.26,1.86-.19,1.52-.41,3.01-.59,4.54.37,1.19.22,2.31-.45,3.35-.07.52-.15,1.08-.22,1.6-.37,2.38-.89,4.72-1.04,7.1-.15,2.19-.89,2.68-3.09,2.38-6.28-.82-12.53-2.19-18.96-2.12-22.53.19-41.5,16.81-44.62,38.26-4.02,27.66-7.62,55.37-11.19,83.07-1.6,12.31,1.86,23.39,9.44,33.17,5.5,7.06,12.49,12.16,21.08,14.95,3.72,1.23,3.72,1.26,3.2,5.17-.82,6.4-1.6,12.79-2.42,19.19-1.26,5.28.3,7.59,5.65,8.29,35.99,4.83,71.99,9.7,107.98,14.54,4.35.59,6.54-1.23,6.77-5.61-.22-2.31.07-4.54.89-6.69.63-2.97,1.04-5.99,1.23-9.04-.19-2.45.15-4.87.97-7.18.11-.33.22-.67.33-1.04,3.57-.07,7.1-.3,10.56-1.12,19.74-4.65,33.09-19.37,35.85-39.49,3.57-26.21,7.07-52.43,10.63-78.64.86-6.4.82-12.72-1-18.89l.04-.04ZM1897.24,190.25c-.78,5.8-5.76,9.63-11.53,8.85-5.87-.78-9.48-5.61-8.66-11.64.78-5.61,5.8-9.33,11.53-8.52,5.35.74,9.37,5.99,8.66,11.3ZM1817.15,218.1c2.19-.93,4.72-.26,6.25,1.64,5.17,6.4,11.64,11.01,19.45,13.46,10.08,3.16,20.12,2.75,29.86-1.64,2.49-1.12,4.83-2.49,7.06-4.02,2.71-1.86,5.84-1.49,7.55.78,1.71,2.27,1.15,5.24-1.45,7.36-7.47,6.06-16.17,9-25.62,10.04-3.9.45-7.73.15-11.56-.52-13.27-1.56-23.95-7.77-32.42-17.96-1-1.19-2.01-2.45-1.97-4.16,0-2.23.74-4.09,2.94-5.02l-.07.04ZM1828.3,170.84c5.58.74,9.26,5.8,8.44,11.56-.78,5.73-5.65,9.37-11.45,8.59-5.65-.78-9.48-5.76-8.74-11.42.74-5.61,5.99-9.52,11.71-8.74h.04Z"/><path class="cls-5" d="M1902.56,301.88c-.19-2.45.15-4.87.97-7.18-.04,2.42-.37,4.83-.97,7.18Z"/><path class="cls-5" d="M1900.44,317.61c-.22-2.31.07-4.54.89-6.69,0,2.27-.3,4.5-.89,6.69Z"/><path class="cls-5" d="M1828.23,94.32c.37,1.19.22,2.31-.45,3.35-.07-1.15.07-2.23.45-3.35Z"/><path class="cls-5" d="M1909.7,96.66c-.41-1-.26-1.93.37-2.83.11.97,0,1.9-.37,2.83Z"/><path class="cls-5" d="M1829.09,87.92c.41.67.33,1.3-.26,1.86.07-.63.19-1.23.26-1.86Z"/><path class="cls-5" d="M1829.68,83.5s.07.19.11.3c0,0-.11.07-.15.07-.07-.15-.07-.26.04-.41v.04Z"/><path class="cls-3" d="M1848.64,245.21c-13.24-1.56-23.95-7.77-32.42-17.96-1-1.19-2.01-2.45-1.97-4.16,0-2.23.74-4.09,2.94-5.02,2.19-.93,4.72-.26,6.25,1.64,5.17,6.4,11.64,11.01,19.45,13.46,10.08,3.16,20.12,2.75,29.86-1.64,2.49-1.12,4.83-2.49,7.06-4.02,2.71-1.86,5.84-1.49,7.55.78s1.15,5.24-1.45,7.36c-7.47,6.06-16.17,9-25.62,10.04-3.9.45-7.73.15-11.56-.52l-.07.04Z"/><path class="cls-3" d="M1885.72,199.14c-5.87-.78-9.48-5.61-8.66-11.64.78-5.61,5.8-9.33,11.53-8.52,5.35.74,9.37,5.99,8.66,11.3-.78,5.8-5.76,9.63-11.53,8.85Z"/><path class="cls-3" d="M1836.75,182.41c-.78,5.73-5.65,9.37-11.45,8.59-5.65-.78-9.48-5.76-8.74-11.42.74-5.61,5.99-9.52,11.71-8.74,5.58.74,9.26,5.8,8.44,11.56h.04Z"/><path class="cls-6" d="M3076.7,6.22v917.2h917.21V6.22h-917.21Z"/><path class="cls-4" d="M3076.7,923.42V6.22h917.2v917.2s-917.2,0-917.2,0h0ZM3914.24,475.43c8.03-23.79,17.13-59.39,18.62-87.97,1.14-21.56-1.76-51.75-22.09-73.2-16.22-17.14-41.01-25.79-73.67-25.79-41.26,0-74.5,14.56-98.83,43.37l-6.42,7.57-4.27-8.96c-3.48-7.3-5.97-10.29-9.76-14.56-16.62-18.81-44.5-28.34-82.86-28.34-35.14,0-66.88,10.53-89.39,29.65l-5.7,4.84-3.93-6.39c-10.63-17.28-37.12-28.46-67.47-28.46-43.67.01-87.74,5.94-114.32,48.79l-11.02,17.68-.86-20.83c-.67-16.11-2.14-22.81-9.64-30.74-8.24-8.74-22.11-12.99-42.4-12.98-29.79,0-52.18,12.99-68.46,39.74-25.06,40.04-85.64,171.72-84.31,234.31.88,40.62,27.98,65.48,72.53,66.51,36.71.89,65.89-8.53,84.42-27.24l4.73-4.78,4.54,4.92c16.66,18.09,41.99,28.05,71.33,28.05,37.36,0,69.31-11.61,87.66-31.87l5.01-5.52,4.71,5.79c17.18,21.1,43.72,32.16,76.76,32.03,43.09-.19,83.33-19.99,110.4-54.29l7.1-8.99,3.96,10.76c16.68,45.36,61.89,52.12,87.39,52.14,86.58,0,123.97-59.41,156.22-155.24h0Z"/><path class="cls-1" d="M3076.7,923.42V6.22h917.2v917.2s-917.2,0-917.2,0h0ZM3919.98,542.58c11.99-24.71,34.54-86.54,38.71-119.93l.05-.37c5.08-40.76,9.89-79.33-17.61-117.65-19.55-27.24-52.87-45.52-103.56-45.52-38.32,0-72.54,10.38-99.9,33.14-23.43-23.19-57.04-33.71-102.27-33.7-35.39,0-65.1,8.09-90.97,23.62-18.78-14.92-40.82-24.24-75.94-24.24-31.83,0-76.53,1.65-110.25,30.28-7.79-15.9-23.64-28.39-67.35-28.39-40.26,0-73.11,19.05-94.65,54.41-28.76,45.94-89.81,178.6-88.25,251.07,1.16,54.55,42.07,92.14,101.33,93.55,35.61.83,65.94-6.79,89.08-22.15,20.93,15.08,47.67,23.22,77.39,23.22,35.56,0,67.65-9.33,91.43-26.1,21.55,17.08,49.83,26.32,81.82,26.32,41.5.02,80.07-14.32,111.22-41.58,21.25,27.09,57.65,41.18,101.85,41.18,82.75,0,125.74-50.89,157.87-117.15Z"/><path class="cls-2" d="M3070.38,929.62V0h929.62l-.02,929.6-929.6.02ZM3987.19,916.81V12.8s-904.02,0-904.02,0l.02,904.01h904Z"/><path class="cls-2" d="M3936.04,280.44c-.02-12.28,9.91-22.25,22.19-22.27.02,0,.04,0,.06,0,12.28-.02,22.26,9.92,22.28,22.2v.07c.02,12.28-9.91,22.25-22.19,22.27-.03,0-.07,0-.1,0-12.27.02-22.23-9.91-22.25-22.18,0-.03,0-.06,0-.09ZM3958.3,262.59c9.91,0,17.96,7.98,17.93,17.88.03,9.91-8.06,17.91-17.93,17.91-9.86-.01-17.85-8.02-17.83-17.88,0,0,0-.01,0-.02-.04-9.83,7.9-17.84,17.73-17.88.03,0,.07,0,.1,0ZM3966.97,287.43l2.66,4.65-5.77.04-1.84-3.77c-.82-1.65-1.88-3.17-3.15-4.51-.91-.95-1.74-1.18-3.79-1.18h-.85s-.01,9.46-.01,9.46h-4.76v-23.07h11.49c4.95,0,7.28,2.76,7.28,6.42.01,3.49-2.34,5.99-6.24,6.46v.13c1.99.69,2.64,1.33,4.97,5.39h0ZM3954.22,272.62v6.34h4.82c3.22,0,4.29-1.57,4.24-3.2,0-2.03-1.62-3.15-4.76-3.15l-4.3.02ZM3733.33,327.69c22.46-26.6,55.68-45.65,103.73-45.65,83.17,0,104.93,54.38,102.21,105.77-1.62,30.88-11.53,67.68-18.93,89.68-32.9,97.77-72.41,159.59-162.32,159.58-41.03.01-78.58-16-93.38-56.33-27.03,34.2-68.33,56.52-115.43,56.75-36,.18-63.99-12.54-81.78-34.4-21.12,23.31-56.87,33.99-92.39,34-31.92-.02-58.57-11.14-76.06-30.14-19.49,19.66-50.12,30.09-89.12,29.17-49.97-1.2-77.88-31.18-78.8-72.79-1.37-64.42,59.98-197.42,85.27-237.8,17.46-28.65,41.7-42.71,73.9-42.73,17.68.02,35.83,3.09,47.05,14.98,9.23,9.76,10.71,18.44,11.39,34.86,28.3-45.6,76-51.8,119.77-51.79,33.49,0,61.28,12.53,72.94,31.48,22.45-19.08,54.77-31.18,93.55-31.18,39.69,0,69.26,9.69,87.66,30.51,4.06,4.57,6.95,8.07,10.74,16.02h0ZM3295.51,552.17c1.48-15.58-10.19-32.4-56.74-24.32,4.62-10.35,11.5-24.55,19.3-40.66h0c25.01-51.64,59.56-122.99,60.21-150.9.35-13.76-5.2-25.24-27.52-25.23-23.58-.01-38.37,9.85-50.49,29.76-26.28,41.96-82.08,168.54-80.91,223.26.66,31.28,24.91,43.62,51.85,44.25,37.13.86,79.91-9.56,84.29-56.16h0ZM3390.27,484.87c-3.1,8.34-8.92,25.79-13.63,44.27,15.28-3.81,26.72-6.45,46.33-6,22.36.55,36.66,9.8,36.65,28.3,0,44.8-49.54,57.96-83.87,57.97-37.73,0-70.88-21.46-70.88-62.72,0-48.37,26.22-121.72,50.82-170.55,30.2-59.99,61.08-67.96,114.24-67.96,23.37,0,50.28,9.98,50.28,32.04,0,30.58-25.86,42.25-51.56,43.72-10.98.63-27.86,1.23-37.95.51,0,0-8.58,13.04-17.64,36.23,47.56-6.69,67.74,4.11,59.71,31.61-10.87,37.18-43.08,39.63-82.51,32.57h0ZM3596.67,386.16c6.27-8.8,14.67-16.94,27.54-16.94,15.78,0,14.25,8.35,10.5,19.01-10.63,30.37,21.48,31.17,29.32,30.55,28.03-2.18,43.48-20.3,47.28-51.15,5.21-42.01-30.19-58.14-75.05-58.14-74.78,0-104.14,45.74-132.14,111.12-13.15,30.71-29.72,83.2-29.72,116.63,0,46.95,28.56,72.4,74.6,72.4,67.23,0,114.73-53.61,128.3-120.4,4.18-20.55,9.33-59.13-42.89-56.98-26.5,1.09-42.49,6.94-50.92,34.02-8.68,27.9,22.79,28.66,22.79,28.66-6.33,28.84-24.87,46.33-41.38,46.35-10.31,0-19.69-4.47-16.55-26.29,4.66-31.9,34.54-109.48,48.31-128.84h0ZM3906.63,424.41c-7.93,39.35-25.7,85.94-45,120.65-31.5,56.62-69.72,64.56-103.13,64.13-33.39-.4-71.03-12.71-71.32-64.24-.2-36.98,15.74-89.2,29.29-123.4,23.63-62.03,47.73-112.61,124-111.71,88.92,1.04,73.06,80.13,66.16,114.56h0ZM3795.09,525.31c12.36-20.94,47.17-115.93,48.12-139.69.28-6.92-.86-14.98-12.02-15.11-7.65-.11-14.3,1.37-20.28,10.61-13.44,17.47-52.78,124.9-52.11,146.34.24,7.71,4.54,14.43,14.01,14.43,10.9.01,16.93-7.49,22.28-16.59h0Z"/><path class="cls-3" d="M2683.79,415.81c-10.71-6.06-22.49-9.1-35.34-9.1s-23.16,2.72-31.46,8.16c-2.05,1.35-3.97,2.87-5.76,4.57v-62.26h-60.51v198.65h57.56v-12.08c2.32,2.59,4.89,4.85,7.76,6.72,8.21,5.36,19.01,8.03,32.39,8.03s24.63-3.08,35.34-9.23c10.71-6.16,19.28-14.9,25.7-26.24,6.43-11.33,9.64-24.85,9.64-40.56s-3.21-29.22-9.64-40.56c-6.42-11.33-14.99-20.03-25.7-26.1ZM2654.61,498.4c-2.14,4.38-5,7.63-8.57,9.77-3.57,2.14-7.59,3.21-12.05,3.21s-8.48-1.07-12.05-3.21c-3.57-2.14-6.42-5.4-8.57-9.77-2.14-4.37-3.21-9.68-3.21-15.93s1.07-11.74,3.21-15.93c2.14-4.19,4.99-7.36,8.57-9.5,3.57-2.14,7.59-3.21,12.05-3.21s8.48,1.07,12.05,3.21c3.57,2.14,6.42,5.31,8.57,9.5,2.14,4.19,3.21,9.5,3.21,15.93s-1.07,11.56-3.21,15.93Z"/><path class="cls-3" d="M2839.87,409.38l-30.81,78.52-30.23-78.52h-62.11l61.63,148.11c-.85,1.03-1.75,1.98-2.73,2.75-2.86,2.23-6.96,3.34-12.31,3.34-3.57,0-7.28-.72-11.11-2.14-3.84-1.43-7.27-3.3-10.31-5.62l-20.08,41.5c4.99,3.92,11.65,7.1,19.95,9.5,8.3,2.41,16.46,3.62,24.5,3.62,10.35,0,19.85-1.52,28.51-4.55,8.65-3.04,16.51-8.3,23.56-15.8,7.05-7.49,13.25-17.94,18.61-31.32l60.24-149.39h-57.29Z"/></svg>