<?xml version="1.0" encoding="UTF-8"?><svg id="Calque_1" xmlns="http://www.w3.org/2000/svg" viewBox="0 0 1072.27 250"><defs><style>.cls-1{fill:#fff;stroke-width:0px;}</style></defs><path class="cls-1" d="M721.75,111.82c-2.88-1.63-6.05-2.45-9.5-2.45s-6.23.73-8.46,2.2c-.55.36-1.07.77-1.55,1.23v-16.74h-16.27v53.42h15.48v-3.25c.62.7,1.32,1.3,2.09,1.81,2.21,1.44,5.11,2.16,8.71,2.16s6.62-.83,9.5-2.48c2.88-1.66,5.18-4.01,6.91-7.06,1.73-3.05,2.59-6.68,2.59-10.91s-.86-7.86-2.59-10.91c-1.73-3.05-4.03-5.39-6.91-7.02ZM713.9,134.03c-.58,1.18-1.34,2.05-2.3,2.63-.96.58-2.04.86-3.24.86s-2.28-.29-3.24-.86c-.96-.58-1.73-1.45-2.3-2.63-.58-1.17-.86-2.6-.86-4.28s.29-3.16.86-4.28c.58-1.13,1.34-1.98,2.3-2.56.96-.58,2.04-.86,3.24-.86s2.28.29,3.24.86c.96.58,1.73,1.43,2.3,2.56.58,1.13.86,2.56.86,4.28s-.29,3.11-.86,4.28Z"/><path class="cls-1" d="M763.72,110.09l-8.29,21.12-8.13-21.12h-16.7l16.57,39.83c-.23.28-.47.53-.73.74-.77.6-1.87.9-3.31.9-.96,0-1.96-.19-2.99-.58-1.03-.38-1.96-.89-2.77-1.51l-5.4,11.16c1.34,1.05,3.13,1.91,5.36,2.56,2.23.65,4.43.97,6.59.97,2.78,0,5.34-.41,7.67-1.22,2.33-.82,4.44-2.23,6.34-4.25,1.9-2.02,3.56-4.82,5-8.42l16.2-40.17h-15.41Z"/><path class="cls-1" d="M142.1,38.71c-7.65,2.61-12.09,8.79-15.65,15.62-8.57,16.43-17.04,32.91-25.59,49.35-.43.84-.52,2.34-1.86,2.1-1.21-.22-1.01-1.62-1.24-2.59-3.82-16.24-7.58-32.5-11.5-48.72-1.19-4.94-3.17-9.63-7.27-12.95-11.23-9.08-28.75-3.31-31.94,10.79-2.98,13.17-4.07,26.67-6.05,40.02-3.38,22.75-6.38,45.55-9.6,68.32-.86,6.1.2,11.49,5.46,15.26,9.66,6.92,24.47,1.75,27.47-9.7,2.7-10.31,3.26-21,4.93-31.49,1.07-6.69,1.93-13.41,2.92-20.34,1.41,1,1.33,2.21,1.44,3.3.66,7.06,1.18,14.13,1.95,21.18.68,6.26,3.18,11.61,9.4,14.09,8.68,3.46,20.04,2.5,25.97-9.24,3.98-7.88,6.63-16.31,9.66-24.57.46-1.27.7-2.57,2.44-3.8-.51,3.69-.62,6.9-1.01,10.03-1.57,12.48-3.45,24.93-5.19,37.39-.79,5.69,2.79,12.22,7.86,14.43,12.2,5.33,24.52-1.55,26.35-14.72,1.16-8.38,2.33-16.76,3.5-25.14,2.04-14.61,4.09-29.23,6.14-43.84,1.68-12.01,3.51-24,5.03-36.02,2.11-16.62-10.73-23.17-23.61-18.77Z"/><path class="cls-1" d="M320.36,37.94c-3.72-.82-7.51-.72-11.26.05-5.02,1.03-8.36,4.09-10.26,8.74-.99,2.43-1.83,4.91-2.18,7.56-1.18,8.96-2.45,17.9-3.69,26.85-.42,3.06-.84,6.12-1.29,9.17-.08.56-.26,1.18-.92,1.27-.77.11-.83-.6-1.01-1.12-.18-.54-.36-1.09-.52-1.63-4.04-13.47-8.04-26.94-12.14-40.39-1.28-4.2-3.69-7.68-7.86-9.48-11.45-4.95-21.52.14-24.39,12.24-.11.44-.24.89-.31,1.34-2.76,19.24-5.55,38.47-8.26,57.72-2.38,16.87-4.62,33.76-7.03,50.63-.84,5.88.34,11.02,5.13,14.76,9.25,7.23,24.5,2.25,27.82-8.94,1.34-4.53,1.63-9.22,2.32-13.86,1.43-9.68,2.76-19.38,4.25-29.92,1.46,1.92,1.65,3.28,2.04,4.57,3.76,12.48,7.38,24.99,11.36,37.4,2.3,7.17,6.14,13.22,14.75,13.76,10.01.63,16.7-4.53,18.34-14.59,2.02-12.41,3.61-24.89,5.37-37.35,1.87-13.25,3.75-26.49,5.58-39.75,1.58-11.44,3.2-22.88,4.59-34.35.9-7.41-3.23-13.09-10.44-14.69Z"/><path class="cls-1" d="M590.59,78.66c-5.28-.77-10.74-.26-16.12-.35-14.19-.25-26.27,4.92-36.09,14.89-18.79,19.08-23.28,42.44-18.66,67.91,1.75,9.67,7.79,16.57,18.03,18.41,9.31,1.67,17.23-.94,22.99-8.8.91-1.24,1.66-2.6,2.48-3.91.44,4.16-.13,8.18-1.31,12-2.33,7.59-7.09,10.92-15.06,10.97-5.15.03-10.31-.04-15.46.02-5.31.06-9.92,1.92-13.27,6.12-4.04,5.05-4.93,10.92-2.54,16.8,2.23,5.49,7.2,6.86,12.75,6.79,6.87-.09,13.75.1,20.62-.05,10-.22,19.53-2.31,28-7.98,11.67-7.82,17.07-19.55,19.33-32.77,4.23-24.8,8.02-49.68,11.86-74.54,2.14-13.82-4.48-23.61-17.54-25.51ZM573.69,105.77c-1.48,8.9-2.86,17.82-4.3,26.73-.68,4.16-.87,8.42-2.62,12.35-1.7,3.81-4.17,5.66-7.14,5.34-3.07-.33-5.24-2.92-5.81-7.09-.25-1.81-.31-3.64-.43-5.11.42-10.43,2.27-20.11,7.66-28.83,2.31-3.73,5.6-5.87,10.12-6.08,2.16-.1,2.88.53,2.52,2.7Z"/><path class="cls-1" d="M217.22,40.56c-10.59-7.85-26.29-1.86-28.41,11.12-3.2,19.62-5.79,39.34-8.58,59.03-2.32,16.41-4.38,32.85-6.9,49.23-1.76,11.45,4.13,18.77,15.73,18.75,10.41-.01,16.9-6.21,18.28-17.04,2.04-15.98,4.24-31.95,6.48-47.91,2.75-19.58,5.62-39.14,8.4-58.71.8-5.65-.23-10.93-5.01-14.48Z"/><path class="cls-1" d="M371.62,162.88c2.38-15.38,4.29-30.83,6.43-46.24,1.89-13.6,3.84-27.18,5.74-40.78,1.09-7.81,2.13-15.63,3.2-23.45.15-4.94-1.39-9.21-5.44-12.03-10.94-7.61-26.11-1.5-28.28,11.6-2.68,16.13-4.84,32.34-7.14,48.53-2.9,20.38-5.67,40.79-8.57,61.17-1.1,7.74,2.84,14.44,10.39,16.28,10.68,2.61,21.48-.97,23.67-15.09Z"/><path class="cls-1" d="M495.8,91.34c-11.76-1.34-19.74,4.71-21.59,16.43-3.45,21.91-4.8,30.94-8.58,52.79-2.15,12.44,6.39,18.64,15.14,18.12,10.47.04,17.17-5.99,18.77-16.62,1.88-12.43,3.97-24.84,5.92-37.26,1.56-9.93,1.31-6.94,2.68-16.9,1.23-8.95-3.84-15.59-12.35-16.56Z"/><path class="cls-1" d="M638.55,88.52c-3.46-20.06-20.02-37.03-40.08-40.15-13.43-2.09-26.9-1.95-40.37.02-2.57.38-5.84,2.71-7.36,1.18-1.53-1.55-1.06-5.14-1.33-7.85-2.18-22.12-23.25-43.05-49.62-41.23-8.07.56-15.95,1.24-24.07.09-8.97-1.27-18.09-.27-27.05,1.05-15.27,2.25-29.25,7.51-40.51,18.53-1.55,1.52-2.26.97-3.53-.22-8.13-7.64-17.57-12.05-28.93-12.57-10.42-.48-20.3.88-29.48,6.07-1.53.86-2.89,1.55-5.01.42-17.05-9.09-34.37-9.07-51.73-.83-1.36.65-2.39.84-3.82.14-16.39-8.07-32.78-8.31-49.06.27-1.92,1.01-3.38,1.12-5.32-.13-5.07-3.27-10.7-5.03-16.74-5.68-12.3-1.34-23.99.32-34.74,6.75-1.61.96-2.76.73-4.34-.23-13.86-8.41-28.66-8.72-43.7-4.23-8.85,2.65-16.02,8.27-22.19,15.08-1.59,1.76-2.54,1.97-4.18-.06-4.01-4.92-8.83-8.94-14.48-11.93-13.56-7.18-27.75-7.55-41.97-3.01-13.91,4.44-23.7,13.78-29.4,27.39-3.96,9.45-4.8,19.49-6.21,29.45-4.2,29.81-8.39,59.61-12.71,89.4-1.98,13.63.85,26,9.36,36.83,8.97,11.41,21.2,16.45,35.43,16.65,18.06.26,32.76-6.56,43.06-21.74,1.8-2.66,2.83-1.9,4.1.25,4.74,8.04,11.19,14.19,19.97,17.61,15.22,5.92,30.2,5.7,44.71-2.25,2.46-1.35,4.31-1.45,6.83.01,7.26,4.22,15.23,6.04,23.65,6.22,9.53.2,18.33-2.28,26.66-6.73,1.29-.69,2.38-1.35,4.08-.39,16.9,9.51,34.01,9.53,51.18.75,1.93-.99,3.46-.96,5.42.08,14.05,7.48,28.73,8.92,43.19,2.05,5.63-2.68,9.91-2.98,14.94.23,1.3.83,1.96,1.45,2.1,3.04,1.73,19.36,13.44,31.86,31.11,37.9,9.83,3.36,20.08,3.38,30.27,2.68,14.44-1,27.36-5.98,38.56-15.41,8.97-7.55,15.26-16.96,20.19-27.42.55-1.17.63-2.87,2.75-1.81,7.31,3.67,15.11,5.2,23.26,5,1.68-.04,2.07.7,2.24,2.22,1.09,9.49,4.59,17.87,11.55,24.65,7.74,7.55,16.82,12.06,27.71,12.87,5.95.44,11.9.45,19.09.41,7.47.18,16.14-.03,24.73-1.86,16.06-3.42,29.85-10.8,40.92-22.99,12.68-13.96,17.96-31.06,20.75-49.23,3.11-20.25,6.4-40.47,9.52-60.71,1.36-8.83,2.17-17.63.61-26.63ZM624.24,115.02c-3.17,20.35-6.43,40.69-9.64,61.03-2.67,16.89-8.23,32.37-21.31,44.24-10.11,9.18-22.12,14.04-35.59,15.45-11.53,1.21-23.12,1.71-34.62.22-19.61-2.54-30.52-19.7-24.96-38.67.48-1.63.96-3.27,1.54-5.24-19.49,7.28-36.69,6.39-49.23-13.32-1.99,7.11-3.82,13.67-6.45,19.97-5.89,14.11-14.66,25.7-28.89,32.16-15.34,6.96-31.37,8.32-47.09,2.08-14.13-5.6-20.85-17.17-18.92-34.02.25-2.16.12-2.84-2.27-3.15-7.78-1.02-14.32-4.6-19.41-10.61-1.21-1.42-1.81-1.77-3.28-.14-10.94,12.15-29.49,14.86-43.55,6.33-2.31-1.4-4.31-3.39-6.27-5.3-1.37-1.34-2.23-1.48-3.6.04-12.83,14.24-40.63,13.47-51.9-1.04-1.28-1.64-1.92-1.51-3.3-.01-6.37,6.98-14.1,11-23.81,11.11-7.93.09-15.52-.6-22.34-5.16-2.61-1.74-4.78-3.92-6.83-6.22-1-1.13-1.51-1.64-2.84-.22-11.65,12.4-25.9,14.34-41.24,9.07-8.37-2.87-14.02-9.38-16.94-17.82-1.09-3.16-2.57-4.42-5.97-3.59-3.3.81-6.64-.1-9.85-.86-2.98-.7-4.4-.05-5.57,3.01-4.21,10.98-12.03,18.71-23.6,20.96-12.38,2.41-24.55,1.36-34.04-8.65-7.64-8.06-9.97-17.75-8.43-28.56,3.9-27.42,7.82-54.83,11.65-82.25,1.23-8.84,2.08-17.75,4.2-26.42,4.7-19.23,19.46-30.01,39.46-28.79,18.47,1.13,30.04,13.66,34.61,32.4.23.95-.06,2.43,1.13,2.65,1.48.29,1.62-1.36,2.09-2.29,4.67-9.1,9.56-18.01,17.76-24.57,8.18-6.54,17.34-9.43,27.85-7.98,5.72.79,11.21,1.92,16.17,5.14,2.67,1.73,4.73,4,6.69,6.34,1.58,1.89,2.46,2.06,4,.01,5.11-6.81,12.31-10.07,20.5-11.3,12.27-1.85,23.25.64,31.85,10.24,1.37,1.54,2.08,1.68,3.65.03,9.87-10.37,21.97-12.78,35.56-9.54,5.5,1.31,10.23,3.94,14.07,8.1,1.58,1.71,2.96,1.77,4.53.02,10.08-11.25,33.22-12.79,47.03-2.95,2.46,1.75,3.86,4.51,6.23,6.36,10.31-12.07,23.49-15.1,38.22-11.46,13.3,3.28,20.03,13.1,23.32,26.3,1.58-2.78,2.99-5.28,4.43-7.76,7.57-13.02,19.39-20.18,33.6-23.56,12.67-3.01,25.58-4.46,38.47-1.6,4.55,1.01,8.55.42,12.97-.45,14.52-2.86,27,1.37,35.83,13.37,8.22,11.17,8.58,23.55,2.91,36.13-1.66,3.68-3.8,13.37-6.75,16.12,7.16-6.81,15.17-12.23,24.39-15.75,11.43-4.37,23.35-3.93,35.27-3.86,8.72.06,16.85,2.21,24.11,6.88,8.04,5.17,12.87,12.74,14.99,22.11,1.92,8.5.72,16.87-.58,25.25Z"/><path class="cls-1" d="M511.94,79.25c-.22.63-.31,1.27-.26,1.93.17-.63.25-1.28.26-1.93Z"/><path class="cls-1" d="M511.11,85.41c.16-.59.24-1.19.24-1.8-.22.58-.3,1.18-.24,1.8Z"/><path class="cls-1" d="M491.69,25.36c-.1.29-.14.59-.12.9.18-.28.22-.58.12-.9Z"/><path class="cls-1" d="M524.51,68.05c.96-7.05,1.9-14.1,2.86-21.15.23-1.72.22-3.42-.27-5.08-1.21-4.17-3.86-7.02-7.95-8.49-1.86-.67-3.84-.7-5.77-1-.4-.06-.61-.19-.54-.62.25-1.91.51-3.81.76-5.72-.08-.2-.05-.39.02-.57-.08.18-.1.37-.02.57.09-.24.13-.5.1-.76,0,0,0,0,0,0,.23-1.98-1.27-4.04-3.24-4.32-4.67-.66-9.34-1.3-14.01-1.89-2.1-.26-4.14,1.39-4.36,3.43,0,.03.02.05.03.08h0s-.02-.05-.03-.08c-.03.03-.04.07-.01.1h0c-.05.36-.1.72-.15,1.09-.02.17-.05.33-.07.5-.05.41-.11.81-.16,1.22.1.32.06.62-.12.9-.02.14-.04.29-.06.43-.1.64-.24,1.27-.28,1.91-.04.59-.24.72-.83.64-1.69-.22-3.37-.59-5.1-.57-3.06.02-5.86,1.17-8.01,3.05-.48-.09-.97-.15-1.47-.19-3.07-.24-6.17-.05-9.26-.05-5.29-.46-10.54.19-15.71,1.11-12.2,2.17-22.2,7.7-28.12,19.14-3.5,6.76-5.71,13.97-7.04,21.42-.6,3.35-1.11,5.65-5.57,5.34-4.5-.31-8.5,1.95-11.36,5.5-4.33,5.38-5.31,11.49-3.22,18.09,1.8,5.67,6.2,7.19,11.51,7.27,2.04.03,2.5,1.16,2.18,2.96-.57,3.15-1.11,6.31-1.61,9.47-1.92,12.2-3.72,24.42-5.76,36.6-1.32,7.88-2.43,15.84-5.52,23.32-2.16,5.25-6.28,7.65-11.73,8.1-1.14.09-2.29-.02-3.44.03-8.3.35-14.28,5.72-14.88,13.34-.66,8.21,3.66,13.51,12.33,15.45,5.11,1.14,10.26,1.2,15.38.66,11.32-1.18,20.79-5.79,27.6-15.31,5.17-7.22,8.27-15.34,10.27-23.8,5.06-21.39,7.36-43.28,10.96-64.94.93-5.6.74-5.82,6.43-5.85,12.74-.07,19.19-10.32,16.93-22.39-.75-3.98-3.19-6.72-7.19-8.01-2.59-.84-5.21-.61-7.83-.63-1.32,0-2.37-.19-2-1.87,1.91-8.65,4.54-15.65,15.8-15.53,1.79.02,3.59.08,5.38.02-.01.11-.03.23-.04.34-.43,3.31.5,6.29,2.54,8.92,1.48,1.9,3.36,3.27,5.67,4.02,1,.33,1,.34.86,1.39-.22,1.72-.43,3.44-.65,5.16-.34,1.42.08,2.04,1.52,2.23,9.68,1.3,19.36,2.61,29.04,3.91,1.17.16,1.76-.33,1.82-1.51-.06-.62.02-1.22.24-1.8.17-.8.28-1.61.33-2.43-.05-.66.04-1.31.26-1.93.03-.09.06-.18.09-.28.96-.02,1.91-.08,2.84-.3,5.31-1.25,8.9-5.21,9.64-10.62ZM488.56,48.29c.2-1.51,1.61-2.56,3.15-2.35,1.5.2,2.49,1.56,2.27,3.11-.21,1.54-1.52,2.52-3.08,2.31-1.52-.21-2.55-1.55-2.35-3.07ZM507.19,63.38c-2.01,1.63-4.35,2.42-6.89,2.7-1.05.12-2.08.04-3.11-.14-3.57-.42-6.44-2.09-8.72-4.83-.27-.32-.54-.66-.53-1.12,0-.6.2-1.1.79-1.35.59-.25,1.27-.07,1.68.44,1.39,1.72,3.13,2.96,5.23,3.62,2.71.85,5.41.74,8.03-.44.67-.3,1.3-.67,1.9-1.08.73-.5,1.57-.4,2.03.21.46.61.31,1.41-.39,1.98ZM510.25,51.16c-.21,1.56-1.55,2.59-3.1,2.38-1.58-.21-2.55-1.51-2.33-3.13.21-1.51,1.56-2.51,3.1-2.29,1.44.2,2.52,1.61,2.33,3.04Z"/><path class="cls-1" d="M1065.84,74.16c0-.55-.43-.85-1.28-.85h-1.16v1.71h1.3c.87,0,1.15-.42,1.14-.86Z"/><path class="cls-1" d="M1030.31,99.64c-2.06-.03-3.85.37-5.45,2.85-3.61,4.7-14.19,33.59-14.01,39.35.07,2.07,1.22,3.88,3.77,3.88,2.93,0,4.55-2.01,5.99-4.46h0c3.33-5.63,12.68-31.18,12.94-37.57.07-1.86-.23-4.03-3.23-4.06Z"/><path class="cls-1" d="M1031.9,77.58c-11.1,0-20.04,3.92-26.58,11.66l-1.73,2.04-1.15-2.41c-.94-1.96-1.61-2.77-2.62-3.92-4.47-5.06-11.97-7.62-22.28-7.62-9.45,0-17.99,2.83-24.04,7.97l-1.53,1.3-1.06-1.72c-2.86-4.65-9.98-7.65-18.15-7.65-11.74,0-23.59,1.6-30.74,13.12l-2.96,4.76-.23-5.6c-.18-4.33-.58-6.13-2.59-8.27-2.22-2.35-5.95-3.49-11.4-3.49-8.01,0-14.03,3.49-18.41,10.69-6.74,10.77-23.03,46.18-22.67,63.01.24,10.92,7.53,17.61,19.5,17.89,9.87.24,17.72-2.29,22.7-7.32l1.27-1.29,1.22,1.32c4.48,4.86,11.29,7.54,19.18,7.54,10.05,0,18.64-3.12,23.57-8.57l1.35-1.48,1.27,1.56c4.62,5.67,11.76,8.65,20.64,8.61,11.59-.05,22.41-5.38,29.69-14.6l1.91-2.42,1.07,2.89c4.49,12.2,16.64,14.02,23.5,14.02,23.28,0,33.34-15.98,42.01-41.75,2.16-6.4,4.61-15.97,5.01-23.66.31-5.8-.47-13.92-5.94-19.69-4.36-4.61-11.03-6.94-19.81-6.94ZM876.19,131.02h0c-2.1,4.33-3.95,8.15-5.19,10.94,12.52-2.17,15.66,2.35,15.26,6.54h0c-1.18,12.53-12.68,15.33-22.67,15.1-7.25-.17-13.77-3.49-13.94-11.9-.32-14.71,14.69-48.76,21.76-60.04,3.26-5.35,7.24-8.01,13.58-8,6,0,7.49,3.08,7.4,6.78-.18,7.51-9.47,26.69-16.19,40.58ZM911.74,130.39h0c-.83,2.24-2.4,6.94-3.67,11.91,4.11-1.03,7.18-1.73,12.46-1.61,6.01.15,9.86,2.64,9.86,7.61,0,12.05-13.32,15.59-22.56,15.59-10.15,0-19.06-5.77-19.06-16.87,0-13.01,7.05-32.73,13.67-45.87,8.12-16.13,16.43-18.28,30.72-18.28,6.29,0,13.52,2.68,13.52,8.62,0,8.22-6.96,11.36-13.87,11.76-2.95.17-7.49.33-10.21.14,0,0-2.31,3.51-4.74,9.74,12.79-1.8,18.22,1.1,16.06,8.5-2.92,10-11.59,10.66-22.19,8.76ZM988.93,131.57c-3.65,17.96-16.42,32.38-34.5,32.38-12.38,0-20.06-6.85-20.06-19.47,0-8.99,4.45-23.1,7.99-31.36,7.53-17.58,15.42-29.88,35.54-29.88,12.07,0,21.58,4.34,20.18,15.63-1.02,8.3-5.18,13.17-12.72,13.76-2.11.17-10.74-.05-7.88-8.22,1.01-2.87,1.42-5.11-2.82-5.11-3.46,0-5.72,2.19-7.41,4.56-3.7,5.21-11.74,26.07-12.99,34.65-.84,5.87,1.68,7.07,4.45,7.07,4.44,0,9.43-4.71,11.13-12.46,0,0-8.46-.2-6.13-7.71,2.27-7.28,6.57-8.86,13.69-9.15,14.04-.58,12.66,9.8,11.53,15.32ZM1050.6,114.14c-2.13,10.58-6.91,23.11-12.1,32.45-8.47,15.23-18.75,17.36-27.73,17.25-8.98-.11-19.1-3.42-19.18-17.28-.05-9.94,4.23-23.99,7.88-33.18,6.35-16.68,12.83-30.28,33.35-30.04,23.91.28,19.65,21.55,17.79,30.81Z"/><path class="cls-1" d="M1064.5,70.62h-.03c-2.64.01-4.78,2.16-4.77,4.81h0c0,2.66,2.14,4.81,4.8,4.82,2.66,0,4.83-2.15,4.82-4.82,0-2.66-2.16-4.81-4.82-4.81ZM1065.99,78.56l-.5-1.01c-.22-.44-.51-.85-.85-1.21-.24-.25-.47-.32-1.02-.32h-.23s0,2.54,0,2.54h-1.28v-6.2h3.09c1.33,0,1.96.74,1.96,1.73,0,.94-.63,1.61-1.68,1.74v.03c.53.18.71.36,1.34,1.45l.72,1.25h-1.55Z"/><path class="cls-1" d="M1072.27,3.44h-243.12v243.11h243.12s0-243.11,0-243.11ZM1064.61,113.56v.1c-1.13,8.98-7.2,25.61-10.42,32.25-8.64,17.82-20.2,31.51-42.46,31.51-11.89,0-21.68-3.79-27.39-11.07-8.38,7.33-18.75,11.19-29.91,11.18-8.6,0-16.21-2.48-22-7.08-6.4,4.51-15.03,7.02-24.59,7.02-7.99,0-15.18-2.19-20.81-6.25-6.22,4.13-14.38,6.18-23.96,5.96-15.94-.38-26.94-10.49-27.25-25.16-.42-19.49,16-55.17,23.73-67.52,5.79-9.51,14.63-14.63,25.45-14.63,11.75,0,16.02,3.36,18.11,7.63,9.07-7.7,21.09-8.14,29.65-8.14,9.44,0,15.37,2.51,20.42,6.52,6.96-4.18,14.95-6.35,24.46-6.35,12.16,0,21.2,2.83,27.5,9.06,7.36-6.12,16.56-8.91,26.87-8.91,13.63,0,22.59,4.92,27.85,12.24,7.4,10.31,6.1,20.68,4.74,31.64ZM1070.49,75.42c0,3.3-2.67,5.98-5.97,5.99h-.03c-3.3,0-5.98-2.67-5.98-5.97v-.02c0-3.3,2.67-5.98,5.97-5.99h.02c3.3,0,5.99,2.67,5.99,5.97v.02Z"/></svg>