<?xml version="1.0" encoding="utf-8"?>
<!-- Generator: Adobe Illustrator 28.2.0, SVG Export Plug-In . SVG Version: 6.00 Build 0)  -->
<svg version="1.1" id="Calque_1" xmlns="http://www.w3.org/2000/svg" xmlns:xlink="http://www.w3.org/1999/xlink" x="0px" y="0px"
	 viewBox="0 0 639.4 250" style="enable-background:new 0 0 639.4 250;" xml:space="preserve">
<style type="text/css">
	.st0{fill:#010100;}
	.st1{fill:#FFFFFF;}
	.st2{fill:#E3000B;}
	.st3{fill:#1E5AA8;}
	.st4{fill:#FEED00;}
	.st5{fill:#FDC10A;}
</style>
<path d="M624.8,89.8c-2.1-9.4-7-16.9-15-22.1c-7.3-4.7-15.4-6.8-24.1-6.9c-11.9-0.1-23.8-0.5-35.3,3.9c-9.2,3.5-17.2,8.9-24.4,15.8
	c3-2.8,5.1-12.4,6.8-16.1c5.7-12.6,5.3-25-2.9-36.1c-8.8-12-21.3-16.2-35.8-13.4c-4.4,0.9-8.4,1.5-13,0.4
	c-12.9-2.9-25.8-1.4-38.5,1.6c-14.2,3.4-26,10.5-33.6,23.6c-1.4,2.5-2.8,5-4.4,7.8c-3.3-13.2-10-23-23.3-26.3
	c-14.7-3.6-27.9-0.6-38.2,11.5c-2.4-1.9-3.8-4.6-6.2-6.4c-13.8-9.8-37-8.3-47,3c-1.6,1.8-3,1.7-4.5,0c-3.8-4.2-8.6-6.8-14.1-8.1
	c-13.6-3.2-25.7-0.8-35.6,9.5c-1.6,1.7-2.3,1.5-3.6,0c-8.6-9.6-19.6-12.1-31.9-10.2c-8.2,1.2-15.4,4.5-20.5,11.3c-1.5,2-2.4,1.9-4,0
	c-2-2.3-4-4.6-6.7-6.3c-5-3.2-10.4-4.4-16.2-5.1c-10.5-1.5-19.7,1.4-27.8,8c-8.2,6.6-13.1,15.5-17.8,24.6c-0.5,0.9-0.6,2.6-2.1,2.3
	c-1.2-0.2-0.9-1.7-1.1-2.7c-4.6-18.7-16.1-31.3-34.6-32.4c-20-1.2-34.8,9.6-39.5,28.8c-2.1,8.7-3,17.6-4.2,26.4
	c-3.8,27.4-7.8,54.8-11.6,82.2c-1.5,10.8,0.8,20.5,8.4,28.6c9.5,10,21.6,11.1,34,8.6c11.6-2.2,19.4-10,23.6-21
	c1.2-3.1,2.6-3.7,5.6-3c3.2,0.8,6.6,1.7,9.8,0.9c3.4-0.8,4.9,0.4,6,3.6c2.9,8.4,8.6,14.9,16.9,17.8c15.3,5.3,29.6,3.3,41.2-9.1
	c1.3-1.4,1.8-0.9,2.8,0.2c2.1,2.3,4.2,4.5,6.8,6.2c6.8,4.6,14.4,5.2,22.3,5.2c9.7-0.1,17.4-4.1,23.8-11.1c1.4-1.5,2-1.6,3.3,0
	c11.3,14.5,39.1,15.3,51.9,1c1.4-1.5,2.2-1.4,3.6,0c2,1.9,4,3.9,6.3,5.3c14.1,8.5,32.6,5.8,43.5-6.3c1.5-1.6,2.1-1.3,3.3,0.1
	c5.1,6,11.6,9.6,19.4,10.6c2.4,0.3,2.5,1,2.3,3.1c-1.9,16.8,4.8,28.4,18.9,34c15.7,6.2,31.8,4.9,47.1-2.1
	c14.2-6.5,23-18.1,28.9-32.2c2.6-6.3,4.5-12.9,6.5-20c12.5,19.7,29.7,20.6,49.2,13.3c-0.6,2-1.1,3.6-1.5,5.2
	c-5.6,19,5.4,36.1,25,38.7c11.5,1.5,23.1,1,34.6-0.2c13.5-1.4,25.5-6.3,35.6-15.4c13.1-11.9,18.6-27.4,21.3-44.2
	c3.2-20.3,6.5-40.7,9.6-61C625.5,106.6,626.7,98.3,624.8,89.8L624.8,89.8z M165.7,57.5c-1.5,12-3.4,24-5,36
	c-2.1,14.6-4.1,29.2-6.1,43.8c-1.2,8.4-2.3,16.8-3.5,25.1c-1.8,13.2-14.1,20.1-26.3,14.7c-5.1-2.2-8.7-8.8-7.9-14.4
	c1.7-12.5,3.6-24.9,5.2-37.4c0.4-3.1,0.5-6.3,1-10c-1.7,1.2-2,2.5-2.4,3.8c-3,8.3-5.7,16.7-9.7,24.6c-5.9,11.7-17.3,12.7-26,9.2
	c-6.2-2.5-8.7-7.8-9.4-14.1c-0.8-7.1-1.3-14.1-1.9-21.2c-0.1-1.1,0-2.3-1.4-3.3c-1,6.9-1.9,13.7-2.9,20.3
	c-1.7,10.5-2.2,21.2-4.9,31.5c-3,11.5-17.8,16.6-27.5,9.7c-5.3-3.8-6.3-9.2-5.5-15.3c3.2-22.8,6.2-45.6,9.6-68.3
	c2-13.3,3.1-26.8,6-40C50.2,38.2,67.8,32.5,79,41.5c4.1,3.3,6.1,8,7.3,13c3.9,16.2,7.7,32.5,11.5,48.7c0.2,1,0,2.4,1.2,2.6
	c1.3,0.2,1.4-1.3,1.9-2.1c8.5-16.4,17-32.9,25.6-49.3c3.6-6.8,8-13,15.6-15.6C155,34.3,167.8,40.9,165.7,57.5L165.7,57.5z M222.2,55
	c-2.8,19.6-5.6,39.1-8.4,58.7c-2.2,16-4.4,31.9-6.5,47.9c-1.4,10.8-7.9,17-18.3,17c-11.6,0-17.5-7.3-15.7-18.8
	c2.5-16.4,4.6-32.8,6.9-49.2c2.8-19.7,5.4-39.4,8.6-59c2.1-13,17.8-19,28.4-11.1C222,44.1,223,49.4,222.2,55L222.2,55z M330.8,52.6
	c-1.4,11.5-3,22.9-4.6,34.4c-1.8,13.2-3.7,26.5-5.6,39.8c-1.8,12.4-3.4,24.9-5.4,37.4c-1.6,10.1-8.3,15.2-18.3,14.6
	c-8.6-0.5-12.5-6.6-14.8-13.8c-4-12.4-7.6-24.9-11.4-37.4c-0.4-1.3-0.6-2.7-2-4.6c-1.5,10.5-2.8,20.2-4.2,29.9
	c-0.7,4.6-1,9.3-2.3,13.9c-3.3,11.2-18.6,16.2-27.8,8.9c-4.8-3.7-6-8.9-5.1-14.8c2.4-16.9,4.6-33.8,7-50.6
	c2.7-19.2,5.5-38.5,8.3-57.7c0.1-0.5,0.2-0.9,0.3-1.3c2.9-12.1,12.9-17.2,24.4-12.2c4.2,1.8,6.6,5.3,7.9,9.5
	c4.1,13.5,8.1,26.9,12.1,40.4c0.2,0.6,0.3,1.1,0.5,1.6c0.2,0.5,0.2,1.2,1,1.1c0.7-0.1,0.8-0.7,0.9-1.3c0.5-3.1,0.9-6.1,1.3-9.2
	c1.2-8.9,2.5-17.9,3.7-26.8c0.4-2.7,1.2-5.1,2.2-7.6c1.9-4.7,5.2-7.7,10.3-8.7c3.8-0.8,7.5-0.9,11.3,0
	C327.6,39.5,331.7,45.2,330.8,52.6L330.8,52.6z M348,178c-7.5-1.8-11.5-8.5-10.4-16.3c2.9-20.4,5.7-40.8,8.6-61.2
	c2.3-16.2,4.5-32.4,7.1-48.5c2.2-13.1,17.3-19.2,28.3-11.6c4,2.8,5.6,7.1,5.4,12c-1.1,7.8-2.1,15.6-3.2,23.5
	c-1.9,13.6-3.9,27.2-5.7,40.8c-2.1,15.4-4,30.9-6.4,46.2C369.4,177,358.6,180.6,348,178L348,178z M508.1,107.9
	c-1.4,10-1.1,7-2.7,16.9c-2,12.4-4,24.8-5.9,37.3c-1.6,10.6-8.3,16.6-18.8,16.6c-8.8,0.5-17.3-5.7-15.1-18.1
	c3.8-21.9,5.1-30.9,8.6-52.8c1.9-11.7,9.8-17.8,21.6-16.4C504.3,92.3,509.4,99,508.1,107.9L508.1,107.9z M503.3,67.8
	c-6.5,1.7-12.5,0.4-17.4-4.5c-4.5-4.5-4.5-4.6-10.7-3c-3.4,0.9-6.8,0.7-10.2,0.6c-11.3-0.1-13.9,6.9-15.8,15.5
	c-0.4,1.7,0.7,1.9,2,1.9c2.6,0,5.2-0.2,7.8,0.6c4,1.3,6.5,4,7.2,8c2.3,12.1-4.2,22.3-16.9,22.4c-5.7,0-5.5,0.2-6.4,5.8
	c-3.6,21.7-5.9,43.5-11,64.9c-2,8.5-5.1,16.6-10.3,23.8c-6.8,9.5-16.3,14.1-27.6,15.3c-5.1,0.5-10.3,0.5-15.4-0.7
	c-8.7-1.9-13-7.2-12.3-15.4c0.6-7.6,6.6-13,14.9-13.3c1.1-0.1,2.3,0.1,3.4,0c5.5-0.4,9.6-2.9,11.7-8.1c3.1-7.5,4.2-15.4,5.5-23.3
	c2-12.2,3.8-24.4,5.8-36.6c0.5-3.2,1-6.3,1.6-9.5c0.3-1.8-0.1-2.9-2.2-3c-5.3-0.1-9.7-1.6-11.5-7.3c-2.1-6.6-1.1-12.7,3.2-18.1
	c2.9-3.6,6.9-5.8,11.4-5.5c4.5,0.3,5-2,5.6-5.3c1.3-7.4,3.5-14.7,7-21.4c5.9-11.4,15.9-17,28.1-19.1c5.2-0.9,10.4-1.6,15.7-1.1
	c3.1,0,6.2-0.2,9.3,0c3.7,0.3,7,1.9,8.9,5.1c1.3,2.1,2,1.8,3.4,0.3c4.7-4.8,10.4-6.6,16.9-5.5c10.6,1.9,16.1,11.2,13,22.4
	C515.9,61.3,510.6,65.9,503.3,67.8L503.3,67.8z M608.1,104.2c-3.8,24.9-7.6,49.7-11.9,74.5c-2.2,13.2-7.7,24.9-19.3,32.8
	c-8.5,5.7-18,7.8-28,8c-6.9,0.1-13.8,0-20.6,0.1c-5.5,0.1-10.5-1.3-12.8-6.8c-2.4-5.9-1.5-11.8,2.5-16.8c3.3-4.2,8-6.1,13.3-6.1
	c5.2-0.1,10.3,0,15.5,0c8-0.1,12.7-3.4,15.1-11c1.2-3.8,1.8-7.8,1.3-12c-0.8,1.3-1.6,2.7-2.5,3.9c-5.8,7.9-13.7,10.5-23,8.8
	c-10.2-1.8-16.3-8.7-18-18.4c-4.6-25.5-0.1-48.8,18.7-67.9c9.8-10,21.9-15.2,36.1-14.9c5.4,0.1,10.8-0.4,16.1,0.3
	C603.6,80.6,610.3,90.3,608.1,104.2L608.1,104.2z"/>
<path class="st0" d="M553.4,138c0.4-10.4,2.3-20.1,7.7-28.8c2.3-3.7,5.6-5.9,10.1-6.1c2.2-0.1,2.9,0.5,2.5,2.7
	c-1.5,8.9-2.9,17.8-4.3,26.7c-0.7,4.2-0.9,8.4-2.6,12.4c-1.7,3.8-4.2,5.7-7.1,5.3c-3.1-0.3-5.2-2.9-5.8-7.1
	C553.6,141.3,553.5,139.5,553.4,138L553.4,138z"/>
<path class="st1" d="M123,115.3c-1.7,1.2-2,2.5-2.4,3.8c-3,8.3-5.7,16.7-9.7,24.6c-5.9,11.7-17.3,12.7-26,9.2
	c-6.2-2.5-8.7-7.8-9.4-14.1c-0.8-7.1-1.3-14.1-1.9-21.2c-0.1-1.1,0-2.3-1.4-3.3c-1,6.9-1.9,13.7-2.9,20.3
	c-1.7,10.5-2.2,21.2-4.9,31.5c-3,11.5-17.8,16.6-27.5,9.7c-5.3-3.8-6.3-9.2-5.5-15.3c3.2-22.8,6.2-45.6,9.6-68.3
	c2-13.3,3.1-26.8,6-40C50.2,38.2,67.8,32.4,79,41.5c4.1,3.3,6.1,8,7.3,13c3.9,16.2,7.7,32.5,11.5,48.7c0.2,1,0,2.4,1.2,2.6
	c1.3,0.2,1.4-1.3,1.9-2.1c8.5-16.4,17-32.9,25.6-49.3c3.6-6.8,8-13,15.6-15.6c12.9-4.4,25.7,2.2,23.6,18.8c-1.5,12-3.4,24-5,36
	c-2.1,14.6-4.1,29.2-6.1,43.8c-1.2,8.4-2.3,16.8-3.5,25.1c-1.8,13.2-14.1,20.1-26.3,14.7c-5.1-2.2-8.7-8.8-7.9-14.4
	c1.7-12.5,3.6-24.9,5.2-37.4C122.4,122.3,122.5,119,123,115.3L123,115.3z"/>
<path class="st1" d="M268.8,122.9c-1.5,10.5-2.8,20.2-4.2,29.9c-0.7,4.6-1,9.3-2.3,13.9c-3.3,11.2-18.6,16.2-27.8,8.9
	c-4.8-3.7-6-8.9-5.1-14.8c2.4-16.9,4.6-33.8,7-50.6c2.7-19.2,5.5-38.5,8.3-57.7c0.1-0.5,0.2-0.9,0.3-1.3
	c2.9-12.1,12.9-17.2,24.4-12.2c4.2,1.8,6.6,5.3,7.9,9.5c4.1,13.5,8.1,26.9,12.1,40.4c0.2,0.6,0.3,1.1,0.5,1.6c0.2,0.5,0.2,1.2,1,1.1
	c0.7-0.1,0.8-0.7,0.9-1.3c0.5-3.1,0.9-6.1,1.3-9.2c1.2-8.9,2.5-17.9,3.7-26.8c0.4-2.7,1.2-5.1,2.2-7.6c1.9-4.7,5.2-7.7,10.3-8.7
	c3.8-0.8,7.5-0.9,11.3,0c7.2,1.6,11.3,7.3,10.4,14.7c-1.4,11.5-3,22.9-4.6,34.3c-1.8,13.2-3.7,26.5-5.6,39.8
	c-1.8,12.5-3.4,24.9-5.4,37.3c-1.6,10.1-8.3,15.2-18.3,14.6c-8.6-0.5-12.5-6.6-14.8-13.8c-4-12.4-7.6-24.9-11.4-37.4
	C270.4,126.2,270.2,124.9,268.8,122.9L268.8,122.9z"/>
<path class="st2" d="M466.6,31.5c3.1,0,6.2-0.2,9.3,0c3.7,0.3,7,1.9,8.9,5.1c1.3,2.1,2,1.8,3.4,0.3c4.7-4.8,10.4-6.6,16.9-5.5
	c10.6,1.9,16.1,11.2,13,22.3c-2.1,7.4-7.4,12.1-14.7,14c-6.5,1.7-12.5,0.4-17.4-4.5c-4.5-4.5-4.5-4.6-10.7-3
	c-3.4,0.9-6.8,0.7-10.2,0.6c-11.3-0.1-13.9,6.9-15.8,15.5c-0.4,1.7,0.7,1.9,2,1.9c2.6,0,5.2-0.2,7.8,0.6c4,1.3,6.5,4,7.2,8
	c2.3,12.1-4.2,22.3-16.9,22.4c-5.7,0-5.5,0.2-6.4,5.8c-3.6,21.7-5.9,43.5-11,64.9c-2,8.5-5.1,16.6-10.3,23.8
	c-6.8,9.5-16.3,14.1-27.6,15.3c-5.1,0.5-10.3,0.5-15.4-0.7c-8.7-1.9-13-7.2-12.3-15.4c0.6-7.6,6.6-13,14.9-13.3
	c1.1-0.1,2.3,0.1,3.4,0c5.5-0.4,9.6-2.9,11.7-8.1c3.1-7.5,4.2-15.4,5.5-23.3c2-12.2,3.8-24.4,5.8-36.6c0.5-3.2,1-6.3,1.6-9.5
	c0.3-1.8-0.1-2.9-2.2-3c-5.3-0.1-9.7-1.6-11.5-7.3c-2.1-6.6-1.1-12.7,3.2-18.1c2.9-3.6,6.9-5.8,11.4-5.5c4.5,0.3,5-2,5.6-5.3
	c1.3-7.4,3.5-14.7,7-21.4c5.9-11.4,15.9-17,28.1-19.1C456,31.7,461.2,31,466.6,31.5L466.6,31.5z"/>
<path class="st2" d="M563.2,166.8c-0.8,1.3-1.6,2.7-2.5,3.9c-5.8,7.9-13.7,10.5-23,8.8c-10.2-1.8-16.3-8.7-18-18.4
	c-4.6-25.5-0.1-48.8,18.7-67.9c9.8-10,21.9-15.2,36.1-14.9c5.4,0.1,10.8-0.4,16.1,0.3c13.1,1.9,19.7,11.7,17.5,25.5
	c-3.8,24.9-7.6,49.7-11.9,74.5c-2.2,13.2-7.7,24.9-19.3,32.8c-8.5,5.7-18,7.8-28,8c-6.9,0.1-13.8,0-20.6,0.1
	c-5.5,0.1-10.5-1.3-12.8-6.8c-2.4-5.9-1.5-11.8,2.5-16.8c3.3-4.2,8-6.1,13.3-6.1c5.2-0.1,10.3,0,15.5,0c8-0.1,12.7-3.4,15.1-11
	C563.1,175,563.6,171,563.2,166.8L563.2,166.8z M553.4,138c0.1,1.5,0.2,3.3,0.4,5.1c0.6,4.2,2.7,6.8,5.8,7.1c3,0.3,5.4-1.5,7.1-5.3
	c1.8-3.9,1.9-8.2,2.6-12.4c1.5-8.9,2.8-17.8,4.3-26.7c0.4-2.2-0.4-2.8-2.5-2.7c-4.5,0.2-7.8,2.3-10.1,6.1
	C555.7,117.9,553.8,127.6,553.4,138L553.4,138z"/>
<path class="st1" d="M189.1,178.7c-11.6,0-17.5-7.3-15.7-18.8c2.5-16.4,4.6-32.8,6.9-49.2c2.8-19.7,5.4-39.4,8.6-59
	c2.1-13,17.8-19,28.4-11.1c4.8,3.5,5.8,8.8,5,14.5c-2.8,19.6-5.6,39.1-8.4,58.7c-2.2,16-4.4,31.9-6.5,47.9
	C206,172.5,199.5,178.7,189.1,178.7L189.1,178.7z"/>
<path class="st1" d="M387,52.4c-1.1,7.8-2.1,15.6-3.2,23.5c-1.9,13.6-3.9,27.2-5.7,40.8c-2.1,15.4-4,30.9-6.4,46.2
	c-2.2,14.1-13,17.7-23.7,15.1c-7.5-1.8-11.5-8.5-10.4-16.3c2.9-20.4,5.7-40.8,8.6-61.2c2.3-16.2,4.5-32.4,7.1-48.5
	c2.2-13.1,17.3-19.2,28.3-11.6C385.6,43.2,387.1,47.5,387,52.4L387,52.4z"/>
<path class="st3" d="M480.8,178.7c-8.8,0.5-17.3-5.7-15.1-18.1c3.8-21.9,5.1-30.9,8.6-52.8c1.9-11.7,9.8-17.8,21.6-16.4
	c8.5,1,13.6,7.6,12.4,16.6c-1.4,10-1.1,7-2.7,16.9c-2,12.4-4,24.8-5.9,37.3C497.9,172.7,491.3,178.7,480.8,178.7L480.8,178.7z"/>
<path class="st4" d="M638.5,88.5c-3.5-20.1-20-37-40.1-40.2c-13.4-2.1-26.9-2-40.4,0c-2.6,0.4-5.8,2.7-7.4,1.2
	c-1.5-1.5-1.1-5.1-1.3-7.8c-2.2-22.1-23.2-43-49.6-41.2c-8.1,0.6-16,1.2-24.1,0.1c-9-1.3-18.1-0.3-27,1
	c-15.3,2.2-29.2,7.5-40.5,18.5c-1.5,1.5-2.3,1-3.5-0.2c-8.1-7.6-17.6-12.1-28.9-12.6c-10.4-0.5-20.3,0.9-29.5,6.1
	c-1.5,0.9-2.9,1.6-5,0.4c-17-9.1-34.4-9.1-51.7-0.8c-1.4,0.6-2.4,0.8-3.8,0.1c-16.4-8.1-32.8-8.3-49.1,0.3c-1.9,1-3.4,1.1-5.3-0.1
	c-5.1-3.3-10.7-5-16.7-5.7c-12.3-1.3-24,0.3-34.7,6.7c-1.6,1-2.8,0.7-4.3-0.2c-13.9-8.4-28.7-8.7-43.7-4.2
	c-8.8,2.6-16,8.3-22.2,15.1c-1.6,1.8-2.5,2-4.2-0.1c-4-4.9-8.8-8.9-14.5-11.9c-13.6-7.2-27.8-7.6-42-3C35,14.4,25.2,23.8,19.5,37.4
	c-4,9.5-4.8,19.5-6.2,29.4c-4.2,29.8-8.4,59.6-12.7,89.4c-2,13.6,0.9,26,9.4,36.8c9,11.4,21.2,16.4,35.4,16.6
	c18.1,0.3,32.8-6.6,43.1-21.7c1.8-2.7,2.8-1.9,4.1,0.2c4.7,8,11.2,14.2,20,17.6c15.2,5.9,30.2,5.7,44.7-2.2c2.5-1.4,4.3-1.4,6.8,0
	c7.3,4.2,15.2,6,23.6,6.2c9.5,0.2,18.3-2.3,26.7-6.7c1.3-0.7,2.4-1.4,4.1-0.4c16.9,9.5,34,9.5,51.2,0.8c1.9-1,3.5-1,5.4,0.1
	c14,7.5,28.7,8.9,43.2,2.1c5.6-2.7,9.9-3,14.9,0.2c1.3,0.8,2,1.4,2.1,3c1.7,19.4,13.4,31.9,31.1,37.9c9.8,3.4,20.1,3.4,30.3,2.7
	c14.4-1,27.4-6,38.6-15.4c9-7.6,15.3-17,20.2-27.4c0.5-1.2,0.6-2.9,2.8-1.8c7.3,3.7,15.1,5.2,23.3,5c1.7,0,2.1,0.7,2.2,2.2
	c1.1,9.5,4.6,17.9,11.5,24.6c7.7,7.6,16.8,12.1,27.7,12.9c6,0.4,11.9,0.4,19.1,0.4c7.5,0.2,16.1,0,24.7-1.9
	c16.1-3.4,29.8-10.8,40.9-23c12.7-14,18-31.1,20.8-49.2c3.1-20.2,6.4-40.5,9.5-60.7C639.3,106.3,640.1,97.5,638.5,88.5L638.5,88.5z
	 M624.2,115c-3.2,20.3-6.4,40.7-9.6,61c-2.7,16.9-8.2,32.4-21.3,44.2c-10.1,9.2-22.1,14-35.6,15.4c-11.5,1.2-23.1,1.7-34.6,0.2
	c-19.6-2.5-30.5-19.7-25-38.7c0.5-1.6,1-3.3,1.5-5.2c-19.5,7.3-36.7,6.4-49.2-13.3c-2,7.1-3.8,13.7-6.5,20
	c-5.9,14.1-14.7,25.7-28.9,32.2c-15.3,7-31.4,8.3-47.1,2.1c-14.1-5.6-20.9-17.2-18.9-34c0.2-2.2,0.1-2.8-2.3-3.1
	c-7.8-1-14.3-4.6-19.4-10.6c-1.2-1.4-1.8-1.8-3.3-0.1c-10.9,12.1-29.5,14.9-43.5,6.3c-2.3-1.4-4.3-3.4-6.3-5.3
	c-1.4-1.3-2.2-1.5-3.6,0c-12.8,14.2-40.6,13.5-51.9-1c-1.3-1.6-1.9-1.5-3.3,0c-6.4,7-14.1,11-23.8,11.1c-7.9,0.1-15.5-0.6-22.3-5.2
	c-2.6-1.7-4.8-3.9-6.8-6.2c-1-1.1-1.5-1.6-2.8-0.2c-11.6,12.4-25.9,14.3-41.2,9.1c-8.4-2.9-14-9.4-16.9-17.8c-1.1-3.2-2.6-4.4-6-3.6
	c-3.3,0.8-6.6-0.1-9.8-0.9c-3-0.7-4.4-0.1-5.6,3c-4.2,11-12,18.7-23.6,21c-12.4,2.4-24.5,1.4-34-8.6c-7.6-8.1-10-17.8-8.4-28.6
	c3.9-27.4,7.8-54.8,11.6-82.2c1.2-8.8,2.1-17.8,4.2-26.4c4.7-19.2,19.5-30,39.5-28.8c18.5,1.1,30,13.7,34.6,32.4
	c0.2,1-0.1,2.4,1.1,2.7c1.5,0.3,1.6-1.4,2.1-2.3c4.7-9.1,9.6-18,17.8-24.6c8.2-6.5,17.3-9.4,27.8-8c5.7,0.8,11.2,1.9,16.2,5.1
	c2.7,1.7,4.7,4,6.7,6.3c1.6,1.9,2.5,2.1,4,0c5.1-6.8,12.3-10.1,20.5-11.3c12.3-1.9,23.2,0.6,31.9,10.2c1.4,1.5,2.1,1.7,3.6,0
	c9.9-10.4,22-12.8,35.6-9.5c5.5,1.3,10.2,3.9,14.1,8.1c1.6,1.7,3,1.8,4.5,0c10.1-11.2,33.2-12.8,47-3c2.5,1.8,3.9,4.5,6.2,6.4
	c10.3-12.1,23.5-15.1,38.2-11.5c13.3,3.3,20,13.1,23.3,26.3c1.6-2.8,3-5.3,4.4-7.8c7.6-13,19.4-20.2,33.6-23.6
	c12.7-3,25.6-4.5,38.5-1.6c4.5,1,8.5,0.4,13-0.4c14.5-2.9,27,1.4,35.8,13.4c8.2,11.2,8.6,23.5,2.9,36.1c-1.7,3.7-3.8,13.4-6.8,16.1
	c7.2-6.8,15.2-12.2,24.4-15.8c11.4-4.4,23.3-3.9,35.3-3.9c8.7,0.1,16.8,2.2,24.1,6.9c8,5.2,12.9,12.7,15,22.1
	C626.8,98.3,625.5,106.6,624.2,115L624.2,115z"/>
<path class="st4" d="M527.1,41.8c-1.2-4.2-3.9-7-8-8.5c-1.9-0.7-3.8-0.7-5.8-1c-0.4-0.1-0.6-0.2-0.5-0.6c0.2-1.9,0.5-3.8,0.8-5.7
	c-0.1-0.3-0.1-0.5,0.1-0.8c0.2-2-1.3-4-3.2-4.3c-4.7-0.7-9.3-1.3-14-1.9c-2.1-0.3-4.1,1.4-4.4,3.4c0,0,0,0,0,0.1c0,0,0,0,0,0
	c0,0.4-0.1,0.7-0.1,1.1c0.1,0.2,0.1,0.4-0.1,0.5c0,0.4-0.1,0.8-0.2,1.2c0.1,0.3,0.1,0.6-0.1,0.9c0,0.1,0,0.3-0.1,0.4
	c-0.1,0.6-0.2,1.3-0.3,1.9c0,0.6-0.2,0.7-0.8,0.6c-1.7-0.2-3.4-0.6-5.1-0.6c-6.1,0-11.2,4.5-12,10.3c-1.1,7.4-2,14.9-3,22.3
	c-0.4,3.3,0.5,6.3,2.5,8.9c1.5,1.9,3.4,3.3,5.7,4c1,0.3,1,0.3,0.9,1.4c-0.2,1.7-0.4,3.4-0.6,5.2c-0.3,1.4,0.1,2,1.5,2.2
	c9.7,1.3,19.4,2.6,29,3.9c1.2,0.2,1.8-0.3,1.8-1.5c-0.1-0.6,0-1.2,0.2-1.8c0.2-0.8,0.3-1.6,0.3-2.4c0-0.7,0-1.3,0.3-1.9
	c0-0.1,0.1-0.2,0.1-0.3c1,0,1.9-0.1,2.8-0.3c5.3-1.2,8.9-5.2,9.6-10.6c1-7,1.9-14.1,2.9-21.2C527.6,45.2,527.6,43.5,527.1,41.8
	L527.1,41.8z M510.2,51.2c-0.2,1.6-1.5,2.6-3.1,2.4c-1.6-0.2-2.5-1.5-2.3-3.1c0.2-1.5,1.6-2.5,3.1-2.3
	C509.4,48.3,510.4,49.7,510.2,51.2z M488.7,58.7c0.6-0.2,1.3-0.1,1.7,0.4c1.4,1.7,3.1,3,5.2,3.6c2.7,0.8,5.4,0.7,8-0.4
	c0.7-0.3,1.3-0.7,1.9-1.1c0.7-0.5,1.6-0.4,2,0.2s0.3,1.4-0.4,2c-2,1.6-4.4,2.4-6.9,2.7c-1,0.1-2.1,0-3.1-0.1
	c-3.6-0.4-6.4-2.1-8.7-4.8c-0.3-0.3-0.5-0.7-0.5-1.1C487.9,59.4,488.1,58.9,488.7,58.7L488.7,58.7z M491.7,45.9
	c1.5,0.2,2.5,1.6,2.3,3.1c-0.2,1.5-1.5,2.5-3.1,2.3c-1.5-0.2-2.5-1.5-2.4-3.1C488.8,46.8,490.2,45.7,491.7,45.9L491.7,45.9z"/>
<path class="st5" d="M511.7,81.2c0-0.7,0-1.3,0.3-1.9C511.9,79.9,511.8,80.6,511.7,81.2z"/>
<path class="st5" d="M511.1,85.4c-0.1-0.6,0-1.2,0.2-1.8C511.3,84.2,511.3,84.8,511.1,85.4z"/>
<path class="st5" d="M491.7,25.4c0.1,0.3,0.1,0.6-0.1,0.9C491.6,26,491.6,25.7,491.7,25.4z"/>
<path class="st5" d="M513.6,26c-0.1-0.3-0.1-0.5,0.1-0.8C513.7,25.5,513.7,25.7,513.6,26z"/>
<path class="st5" d="M491.9,23.6c0.1,0.2,0.1,0.4-0.1,0.5C491.9,24,491.9,23.8,491.9,23.6z"/>
<path class="st5" d="M492.1,22.5C492.1,22.5,492.1,22.5,492.1,22.5c0,0.1,0,0.1,0,0.1C492,22.5,492,22.5,492.1,22.5L492.1,22.5z"/>
<path d="M497.2,65.9c-3.6-0.4-6.4-2.1-8.7-4.8c-0.3-0.3-0.5-0.7-0.5-1.1c0-0.6,0.2-1.1,0.8-1.3s1.3-0.1,1.7,0.4
	c1.4,1.7,3.1,3,5.2,3.6c2.7,0.8,5.4,0.7,8-0.4c0.7-0.3,1.3-0.7,1.9-1.1c0.7-0.5,1.6-0.4,2,0.2s0.3,1.4-0.4,2c-2,1.6-4.4,2.4-6.9,2.7
	C499.3,66.2,498.2,66.1,497.2,65.9L497.2,65.9z"/>
<path d="M507.1,53.5c-1.6-0.2-2.5-1.5-2.3-3.1c0.2-1.5,1.6-2.5,3.1-2.3c1.4,0.2,2.5,1.6,2.3,3C510,52.7,508.7,53.8,507.1,53.5z"/>
<path d="M494,49c-0.2,1.5-1.5,2.5-3.1,2.3c-1.5-0.2-2.5-1.5-2.4-3.1c0.2-1.5,1.6-2.6,3.1-2.3C493.2,46.1,494.2,47.5,494,49L494,49z"
	/>
</svg>
