<?xml version="1.0" encoding="UTF-8"?><svg id="Calque_1" xmlns="http://www.w3.org/2000/svg" viewBox="0 0 765.23 250"><defs><style>.cls-1{stroke-width:0px;}</style></defs><path class="cls-1" d="M623.88,144.48c0,12.62,7.68,19.47,20.06,19.47,18.08,0,30.85-14.42,34.5-32.38,1.12-5.53,2.51-15.9-11.53-15.32-7.13.29-11.43,1.87-13.69,9.15-2.33,7.5,6.13,7.71,6.13,7.71-1.7,7.76-6.69,12.46-11.13,12.46-2.77,0-5.29-1.2-4.45-7.07,1.25-8.58,9.29-29.44,12.99-34.65h0c1.69-2.37,3.94-4.56,7.41-4.56,4.24,0,3.83,2.24,2.82,5.11-2.86,8.17,5.78,8.38,7.88,8.22,7.54-.59,11.69-5.46,12.72-13.76,1.4-11.3-8.12-15.63-20.18-15.63-20.11,0-28.01,12.3-35.54,29.88-3.54,8.26-7.99,22.38-7.99,31.36Z"/><path class="cls-1" d="M553.1,163.59c9.99.23,21.49-2.57,22.67-15.1h0c.4-4.19-2.74-8.71-15.26-6.54,1.24-2.78,3.09-6.6,5.19-10.93h0c6.73-13.89,16.02-33.07,16.19-40.58.09-3.7-1.4-6.79-7.4-6.78-6.34,0-10.32,2.65-13.58,8-7.07,11.28-22.07,45.33-21.76,60.04.18,8.41,6.7,11.73,13.94,11.9Z"/><path class="cls-1" d="M597.35,163.89c9.23,0,22.56-3.54,22.56-15.59,0-4.97-3.84-7.46-9.86-7.61-5.27-.12-8.35.59-12.46,1.61,1.27-4.97,2.83-9.66,3.67-11.9h0c10.6,1.9,19.27,1.24,22.19-8.76,2.16-7.4-3.27-10.3-16.06-8.5,2.44-6.24,4.74-9.74,4.74-9.74,2.71.19,7.25.03,10.21-.14,6.91-.4,13.87-3.53,13.87-11.76,0-5.93-7.24-8.62-13.52-8.62-14.3,0-22.6,2.14-30.72,18.28-6.62,13.13-13.67,32.86-13.67,45.87,0,11.1,8.91,16.87,19.06,16.87Z"/><path class="cls-1" d="M700.28,163.83c8.98.11,19.26-2.02,27.73-17.25,5.19-9.33,9.97-21.86,12.1-32.45,1.86-9.26,6.12-30.53-17.79-30.81-20.51-.24-26.99,13.36-33.35,30.04-3.64,9.2-7.93,23.24-7.88,33.18.08,13.86,10.2,17.17,19.18,17.28ZM714.38,102.5c1.61-2.48,3.4-2.88,5.45-2.85,3,.03,3.31,2.2,3.23,4.06-.26,6.39-9.62,31.93-12.94,37.57h0c-1.44,2.45-3.06,4.47-5.99,4.46-2.54,0-3.7-1.81-3.77-3.88-.18-5.76,10.4-34.66,14.01-39.35Z"/><path class="cls-1" d="M552.59,177.18c9.58.22,17.73-1.83,23.96-5.96,5.63,4.06,12.82,6.25,20.81,6.25,9.56,0,18.19-2.51,24.59-7.02,5.8,4.59,13.4,7.08,22,7.08,11.16,0,21.53-3.85,29.91-11.18,5.71,7.29,15.5,11.07,27.39,11.08,22.25,0,33.81-13.69,42.46-31.51,3.22-6.64,9.29-23.27,10.41-32.25v-.1c1.38-10.96,2.67-21.33-4.72-31.64-5.26-7.32-14.22-12.24-27.85-12.24-10.3,0-19.51,2.79-26.87,8.91-6.3-6.24-15.34-9.07-27.5-9.06-9.52,0-17.51,2.18-24.46,6.35-5.05-4.01-10.98-6.52-20.42-6.52-8.56,0-20.58.44-29.65,8.14-2.1-4.28-6.36-7.63-18.11-7.63-10.83,0-19.66,5.12-25.45,14.63-7.73,12.35-24.15,48.03-23.73,67.52.31,14.67,11.31,24.78,27.25,25.16ZM585.76,81.24c2.02,2.13,2.41,3.93,2.59,8.27l.23,5.6,2.96-4.76c7.15-11.52,19-13.12,30.74-13.12,8.16,0,15.29,3.01,18.15,7.65l1.06,1.72,1.53-1.3c6.05-5.14,14.59-7.97,24.04-7.97,10.32,0,17.81,2.56,22.28,7.62,1.02,1.15,1.69,1.95,2.62,3.92l1.15,2.41,1.73-2.04c6.54-7.75,15.48-11.66,26.58-11.66,8.78,0,15.45,2.33,19.81,6.94,5.47,5.77,6.25,13.89,5.94,19.69-.4,7.68-2.85,17.26-5.01,23.66-8.67,25.77-18.73,41.75-42.01,41.75-6.86,0-19.02-1.82-23.5-14.02l-1.07-2.89-1.91,2.42c-7.28,9.22-18.1,14.55-29.69,14.6-8.88.04-16.02-2.94-20.64-8.61l-1.27-1.56-1.35,1.48c-4.93,5.45-13.53,8.57-23.57,8.57-7.89,0-14.7-2.68-19.18-7.54l-1.22-1.32-1.27,1.29c-4.98,5.03-12.83,7.56-22.7,7.33-11.98-.28-19.27-6.96-19.5-17.89-.36-16.83,15.93-52.25,22.67-63.01,4.38-7.19,10.4-10.69,18.41-10.69,5.46,0,9.19,1.14,11.4,3.49Z"/><path class="cls-1" d="M515.23,0v250h250s0-250,0-250h-250ZM761.79,3.44v243.12s0,0,0,0h-243.11V3.44s243.11,0,243.11,0Z"/><path class="cls-1" d="M754.01,81.41h.03c3.3,0,5.97-2.69,5.97-5.99v-.02c0-3.3-2.69-5.98-5.99-5.97h-.02c-3.3,0-5.97,2.69-5.97,5.99v.02c0,3.3,2.68,5.97,5.98,5.97ZM749.22,75.43c-.01-2.64,2.12-4.8,4.77-4.81,0,0,.02,0,.03,0,2.66,0,4.83,2.15,4.82,4.81,0,2.66-2.17,4.82-4.82,4.82-2.65,0-4.8-2.16-4.8-4.81h0Z"/><path class="cls-1" d="M752.92,76.01h.23c.55,0,.78.06,1.02.32.34.36.62.77.85,1.21l.5,1.01h1.55s-.72-1.26-.72-1.26c-.63-1.09-.8-1.27-1.33-1.45v-.03c1.04-.12,1.68-.8,1.68-1.74,0-.98-.62-1.73-1.96-1.73h-3.09v6.2h1.28v-2.54ZM752.92,73.31h1.16c.84,0,1.28.3,1.28.84.01.44-.27.86-1.14.86h-1.3v-1.7Z"/><path class="cls-1" d="M413.47,110.44c-2.29-1.3-4.81-1.95-7.56-1.95s-4.96.58-6.73,1.75c-.44.29-.85.61-1.23.98v-13.33h-12.95v42.52h12.32v-2.59c.5.56,1.05,1.04,1.66,1.44,1.76,1.15,4.07,1.72,6.93,1.72s5.27-.66,7.56-1.98c2.29-1.32,4.13-3.19,5.5-5.62,1.38-2.43,2.06-5.32,2.06-8.68s-.69-6.26-2.06-8.68c-1.38-2.43-3.21-4.29-5.5-5.59ZM407.22,128.12c-.46.94-1.07,1.63-1.83,2.09-.76.46-1.62.69-2.58.69s-1.81-.23-2.58-.69c-.76-.46-1.38-1.16-1.83-2.09-.46-.94-.69-2.07-.69-3.41s.23-2.51.69-3.41c.46-.9,1.07-1.58,1.83-2.03.76-.46,1.62-.69,2.58-.69s1.81.23,2.58.69c.76.46,1.38,1.14,1.83,2.03.46.9.69,2.03.69,3.41s-.23,2.47-.69,3.41Z"/><path class="cls-1" d="M446.88,109.07l-6.6,16.81-6.47-16.81h-13.3l13.19,31.71c-.18.22-.37.42-.58.59-.61.48-1.49.72-2.64.72-.76,0-1.56-.15-2.38-.46-.82-.31-1.56-.71-2.21-1.2l-4.3,8.88c1.07.84,2.49,1.52,4.27,2.03,1.78.52,3.52.77,5.24.77,2.22,0,4.25-.33,6.1-.97,1.85-.65,3.53-1.78,5.04-3.38,1.51-1.6,2.84-3.84,3.98-6.7l12.89-31.98h-12.26Z"/><path class="cls-1" d="M73.09,89.27c-3.93,1.34-6.22,4.52-8.05,8.04-4.41,8.45-8.77,16.93-13.16,25.39-.22.43-.27,1.21-.96,1.08-.62-.11-.52-.83-.64-1.33-1.96-8.36-3.9-16.72-5.91-25.06-.61-2.54-1.63-4.95-3.74-6.66-5.78-4.67-14.79-1.7-16.43,5.55-1.53,6.77-2.09,13.72-3.11,20.58-1.74,11.7-3.28,23.43-4.94,35.14-.44,3.14.1,5.91,2.81,7.85,4.97,3.56,12.59.9,14.13-4.99,1.39-5.3,1.67-10.8,2.54-16.2.55-3.44.99-6.9,1.5-10.46.73.51.69,1.14.74,1.7.34,3.63.61,7.27,1,10.89.35,3.22,1.64,5.97,4.83,7.25,4.46,1.78,10.31,1.28,13.36-4.75,2.05-4.05,3.41-8.39,4.97-12.64.24-.65.36-1.32,1.26-1.95-.26,1.9-.32,3.55-.52,5.16-.81,6.42-1.78,12.82-2.67,19.23-.41,2.92,1.44,6.28,4.04,7.42,6.28,2.74,12.61-.8,13.55-7.57.6-4.31,1.2-8.62,1.8-12.93,1.05-7.52,2.1-15.03,3.16-22.55.87-6.18,1.8-12.34,2.59-18.53,1.08-8.55-5.52-11.92-12.14-9.66Z"/><path class="cls-1" d="M164.78,88.87c-1.91-.42-3.86-.37-5.79.02-2.58.53-4.3,2.11-5.28,4.49-.51,1.25-.94,2.53-1.12,3.89-.61,4.61-1.26,9.21-1.9,13.81-.22,1.57-.43,3.15-.66,4.72-.04.29-.13.61-.47.65-.4.05-.43-.31-.52-.58-.1-.28-.18-.56-.27-.84-2.08-6.93-4.14-13.86-6.25-20.78-.66-2.16-1.9-3.95-4.04-4.88-5.89-2.55-11.07.07-12.55,6.3-.05.23-.13.46-.16.69-1.42,9.9-2.85,19.79-4.25,29.69-1.22,8.68-2.38,17.37-3.61,26.04-.43,3.02.17,5.67,2.64,7.59,4.76,3.72,12.6,1.16,14.31-4.6.69-2.33.84-4.74,1.19-7.13.74-4.98,1.42-9.97,2.19-15.39.75.99.85,1.69,1.05,2.35,1.93,6.42,3.8,12.86,5.85,19.24,1.19,3.69,3.16,6.8,7.59,7.08,5.15.32,8.59-2.33,9.43-7.5,1.04-6.38,1.86-12.8,2.76-19.21.96-6.81,1.93-13.63,2.87-20.44.81-5.89,1.65-11.77,2.36-17.67.46-3.81-1.66-6.73-5.37-7.55Z"/><path class="cls-1" d="M303.77,109.82c-2.72-.39-5.53-.13-8.29-.18-7.3-.13-13.51,2.53-18.57,7.66-9.67,9.82-11.97,21.83-9.6,34.93.9,4.98,4.01,8.52,9.27,9.47,4.79.86,8.86-.48,11.83-4.53.47-.64.85-1.34,1.28-2.01.23,2.14-.07,4.21-.67,6.17-1.2,3.91-3.65,5.62-7.75,5.64-2.65.02-5.3-.02-7.95.01-2.73.03-5.1.99-6.83,3.15-2.08,2.6-2.53,5.62-1.31,8.64,1.15,2.82,3.7,3.53,6.56,3.49,3.53-.05,7.07.05,10.6-.03,5.15-.11,10.05-1.19,14.4-4.1,6-4.02,8.78-10.06,9.94-16.85,2.17-12.76,4.12-25.55,6.1-38.34,1.1-7.11-2.31-12.14-9.02-13.12ZM295.08,123.76c-.76,4.58-1.47,9.17-2.21,13.75-.35,2.14-.45,4.33-1.35,6.35-.87,1.96-2.15,2.91-3.67,2.75-1.58-.17-2.69-1.5-2.99-3.64-.13-.93-.16-1.87-.22-2.63.21-5.37,1.17-10.35,3.94-14.83,1.19-1.92,2.88-3.02,5.21-3.13,1.11-.05,1.48.27,1.3,1.39Z"/><path class="cls-1" d="M111.73,90.22c-5.45-4.04-13.52-.96-14.61,5.72-1.65,10.09-2.98,20.23-4.41,30.36-1.2,8.44-2.25,16.9-3.55,25.32-.91,5.89,2.12,9.65,8.09,9.65,5.36,0,8.69-3.2,9.4-8.76,1.05-8.22,2.18-16.43,3.33-24.64,1.41-10.07,2.89-20.13,4.32-30.2.41-2.9-.12-5.62-2.58-7.45Z"/><path class="cls-1" d="M191.15,153.14c1.22-7.91,2.2-15.86,3.31-23.78.97-6.99,1.98-13.98,2.95-20.97.56-4.02,1.1-8.04,1.64-12.06.08-2.54-.72-4.74-2.8-6.19-5.63-3.91-13.43-.77-14.55,5.96-1.38,8.3-2.49,16.64-3.67,24.96-1.49,10.49-2.92,20.98-4.41,31.46-.57,3.98,1.46,7.43,5.34,8.37,5.49,1.34,11.05-.5,12.17-7.76Z"/><path class="cls-1" d="M255.02,116.34c-6.05-.69-10.15,2.42-11.1,8.45-1.77,11.27-2.47,15.91-4.41,27.15-1.11,6.4,3.29,9.59,7.79,9.32,5.39.02,8.83-3.08,9.66-8.55.97-6.4,2.04-12.77,3.04-19.16.8-5.11.68-3.57,1.38-8.69.63-4.61-1.97-8.02-6.35-8.52Z"/><path class="cls-1" d="M328.44,114.89c-1.78-10.32-10.3-19.05-20.61-20.65-6.91-1.07-13.84-1-20.76,0-1.32.19-3,1.4-3.78.61-.79-.8-.55-2.64-.69-4.04-1.12-11.38-11.96-22.14-25.52-21.21-4.15.29-8.2.64-12.38.05-4.62-.65-9.3-.14-13.91.54-7.85,1.16-15.05,3.86-20.84,9.53-.8.78-1.16.5-1.81-.11-4.18-3.93-9.04-6.2-14.88-6.47-5.36-.25-10.44.45-15.17,3.12-.79.44-1.49.8-2.58.22-8.77-4.67-17.68-4.66-26.61-.42-.7.33-1.23.43-1.96.07-8.43-4.15-16.86-4.27-25.24.14-.99.52-1.74.58-2.74-.07-2.61-1.68-5.51-2.59-8.61-2.92-6.33-.69-12.34.17-17.87,3.47-.83.5-1.42.38-2.23-.12-7.13-4.32-14.74-4.49-22.48-2.18-4.55,1.36-8.24,4.25-11.41,7.75-.82.9-1.3,1.01-2.15-.03-2.06-2.53-4.54-4.6-7.45-6.14-6.97-3.69-14.28-3.88-21.59-1.55-7.15,2.28-12.19,7.09-15.12,14.09-2.04,4.86-2.47,10.02-3.19,15.15-2.16,15.33-4.31,30.66-6.54,45.98-1.02,7.01.44,13.37,4.82,18.94,4.61,5.87,10.91,8.46,18.22,8.57,9.29.13,16.85-3.37,22.15-11.18.93-1.37,1.46-.98,2.11.13,2.44,4.13,5.76,7.3,10.27,9.06,7.83,3.04,15.54,2.93,23-1.16,1.27-.69,2.22-.75,3.51,0,3.74,2.17,7.84,3.11,12.16,3.2,4.9.1,9.43-1.17,13.71-3.46.67-.36,1.22-.69,2.1-.2,8.69,4.89,17.49,4.9,26.33.38.99-.51,1.78-.49,2.79.04,7.23,3.85,14.78,4.59,22.21,1.05,2.9-1.38,5.1-1.54,7.68.12.67.43,1.01.74,1.08,1.56.89,9.96,6.91,16.39,16,19.49,5.05,1.73,10.33,1.74,15.57,1.38,7.43-.51,14.07-3.08,19.83-7.93,4.61-3.89,7.85-8.72,10.38-14.1.28-.6.32-1.48,1.42-.93,3.76,1.89,7.77,2.68,11.96,2.57.86-.02,1.06.36,1.15,1.14.56,4.88,2.36,9.19,5.94,12.68,3.98,3.88,8.65,6.2,14.25,6.62,3.06.23,6.12.23,9.82.21,3.84.09,8.3-.02,12.72-.96,8.26-1.76,15.35-5.55,21.05-11.82,6.52-7.18,9.24-15.98,10.68-25.32,1.6-10.41,3.29-20.81,4.89-31.23.7-4.54,1.12-9.07.32-13.7ZM321.08,128.52c-1.63,10.47-3.31,20.93-4.96,31.39-1.37,8.68-4.23,16.65-10.96,22.75-5.2,4.72-11.38,7.22-18.3,7.95-5.93.62-11.89.88-17.81.12-10.09-1.3-15.7-10.13-12.84-19.89.25-.84.49-1.68.79-2.7-10.03,3.74-18.87,3.29-25.32-6.85-1.03,3.66-1.97,7.03-3.32,10.27-3.03,7.26-7.54,13.22-14.86,16.54-7.89,3.58-16.14,4.28-24.22,1.07-7.27-2.88-10.72-8.83-9.73-17.5.13-1.11.06-1.46-1.17-1.62-4-.52-7.36-2.37-9.98-5.46-.62-.73-.93-.91-1.69-.07-5.63,6.25-15.17,7.64-22.4,3.26-1.19-.72-2.22-1.74-3.22-2.73-.7-.69-1.15-.76-1.85.02-6.6,7.33-20.9,6.93-26.7-.54-.66-.84-.99-.78-1.7,0-3.27,3.59-7.25,5.66-12.25,5.71-4.08.05-7.98-.31-11.49-2.65-1.34-.9-2.46-2.01-3.51-3.2-.51-.58-.78-.84-1.46-.11-5.99,6.38-13.32,7.37-21.21,4.67-4.31-1.48-7.21-4.82-8.72-9.17-.56-1.63-1.32-2.28-3.07-1.85-1.7.42-3.42-.05-5.07-.44-1.53-.36-2.26-.02-2.87,1.55-2.17,5.65-6.19,9.62-12.14,10.78-6.37,1.24-12.63.7-17.51-4.45-3.93-4.15-5.13-9.13-4.34-14.69,2.01-14.1,4.02-28.2,5.99-42.31.63-4.55,1.07-9.13,2.16-13.59,2.42-9.89,10.01-15.44,20.3-14.81,9.5.58,15.45,7.03,17.8,16.67.12.49-.03,1.25.58,1.37.76.15.83-.7,1.08-1.18,2.4-4.68,4.92-9.27,9.13-12.64,4.21-3.37,8.92-4.85,14.33-4.11,2.94.41,5.77.99,8.32,2.64,1.37.89,2.43,2.06,3.44,3.26.81.97,1.27,1.06,2.06,0,2.63-3.5,6.33-5.18,10.54-5.81,6.31-.95,11.96.33,16.38,5.27.71.79,1.07.86,1.88.02,5.08-5.33,11.3-6.57,18.29-4.9,2.83.68,5.26,2.03,7.24,4.17.81.88,1.52.91,2.33,0,5.18-5.78,17.09-6.58,24.19-1.51,1.26.9,1.99,2.32,3.2,3.27,5.3-6.21,12.08-7.76,19.66-5.9,6.84,1.69,10.3,6.74,11.99,13.53.81-1.43,1.54-2.72,2.28-3.99,3.89-6.7,9.97-10.38,17.28-12.12,6.51-1.55,13.16-2.29,19.79-.82,2.34.52,4.4.21,6.67-.23,7.47-1.47,13.89.7,18.43,6.88,4.23,5.75,4.41,12.11,1.49,18.58-.85,1.89-1.96,6.88-3.47,8.29,3.69-3.5,7.8-6.29,12.54-8.1,5.88-2.25,12.01-2.02,18.14-1.98,4.49.03,8.67,1.13,12.4,3.54,4.13,2.66,6.62,6.55,7.71,11.37.99,4.37.37,8.68-.3,12.99Z"/><path class="cls-1" d="M263.32,110.12c-.12.32-.16.65-.13.99.09-.33.13-.66.13-.99Z"/><path class="cls-1" d="M262.89,113.29c.08-.3.12-.61.12-.93-.11.3-.15.61-.12.93Z"/><path class="cls-1" d="M252.9,82.4c-.05.15-.07.3-.06.46.09-.14.11-.3.06-.46Z"/><path class="cls-1" d="M269.79,104.37c.49-3.63.98-7.25,1.47-10.88.12-.88.11-1.76-.14-2.61-.62-2.15-1.98-3.61-4.09-4.37-.96-.35-1.98-.36-2.97-.52-.21-.03-.31-.1-.28-.32.13-.98.26-1.96.39-2.94-.04-.1-.03-.2.01-.3-.04.09-.05.19-.01.3.05-.13.07-.25.05-.39,0,0,0,0,0,0,.12-1.02-.65-2.08-1.67-2.22-2.4-.34-4.8-.67-7.21-.97-1.08-.14-2.13.72-2.24,1.76,0,.01.01.03.01.04h0s0-.03-.01-.04c-.02.02-.02.03,0,.05h0c-.03.19-.05.37-.08.56-.01.09-.02.17-.04.26-.03.21-.06.42-.08.63.05.16.03.32-.06.46,0,.07-.02.15-.03.22-.05.33-.12.65-.15.98-.02.3-.12.37-.43.33-.87-.12-1.73-.3-2.62-.29-1.57.01-3.02.6-4.12,1.57-.25-.04-.5-.08-.76-.1-1.58-.12-3.17-.03-4.76-.03-2.72-.24-5.42.1-8.08.57-6.27,1.12-11.42,3.96-14.47,9.85-1.8,3.48-2.94,7.19-3.62,11.02-.31,1.72-.57,2.91-2.86,2.75-2.31-.16-4.37,1-5.84,2.83-2.23,2.77-2.73,5.91-1.66,9.3.92,2.92,3.19,3.7,5.92,3.74,1.05.02,1.29.6,1.12,1.52-.29,1.62-.57,3.24-.83,4.87-.99,6.28-1.92,12.56-2.96,18.83-.68,4.05-1.25,8.15-2.84,11.99-1.11,2.7-3.23,3.93-6.03,4.16-.59.05-1.18-.01-1.77.01-4.27.18-7.34,2.94-7.66,6.86-.34,4.22,1.88,6.95,6.34,7.95,2.63.59,5.28.62,7.91.34,5.82-.61,10.69-2.98,14.2-7.88,2.66-3.71,4.26-7.89,5.28-12.24,2.6-11,3.79-22.26,5.64-33.4.48-2.88.38-3,3.3-3.01,6.55-.03,9.87-5.31,8.71-11.51-.38-2.05-1.64-3.45-3.7-4.12-1.33-.43-2.68-.31-4.03-.32-.68,0-1.22-.1-1.03-.96.98-4.45,2.34-8.05,8.13-7.99.92,0,1.85.04,2.77,0,0,.06-.02.12-.02.18-.22,1.7.26,3.24,1.31,4.59.76.98,1.73,1.68,2.92,2.07.52.17.51.17.44.71-.11.88-.22,1.77-.33,2.65-.17.73.04,1.05.78,1.15,4.98.67,9.96,1.34,14.94,2.01.6.08.9-.17.94-.78-.03-.32.01-.63.12-.93.09-.41.15-.83.17-1.25-.02-.34.02-.67.13-.99.02-.05.03-.09.05-.14.49,0,.98-.04,1.46-.15,2.73-.64,4.58-2.68,4.96-5.46ZM251.29,94.2c.1-.78.83-1.32,1.62-1.21.77.1,1.28.8,1.17,1.6-.11.79-.78,1.3-1.58,1.19-.78-.11-1.31-.8-1.21-1.58ZM260.88,101.96c-1.03.84-2.24,1.24-3.55,1.39-.54.06-1.07.02-1.6-.07-1.83-.22-3.31-1.07-4.49-2.49-.14-.16-.28-.34-.27-.57,0-.31.1-.57.41-.69.3-.13.65-.04.86.23.71.89,1.61,1.52,2.69,1.86,1.39.44,2.78.38,4.13-.23.34-.15.67-.34.98-.56.38-.26.81-.21,1.04.11.23.31.16.73-.2,1.02ZM262.45,95.68c-.11.8-.8,1.33-1.59,1.22-.81-.11-1.31-.78-1.2-1.61.11-.78.8-1.29,1.59-1.18.74.1,1.3.83,1.2,1.56Z"/></svg>