<?xml version="1.0" encoding="UTF-8"?><svg id="Calque_1" xmlns="http://www.w3.org/2000/svg" viewBox="0 0 4000 1307.25"><defs><style>.cls-1,.cls-2,.cls-3,.cls-4,.cls-5,.cls-6,.cls-7,.cls-8,.cls-9,.cls-10{stroke-width:0px;}.cls-1,.cls-2,.cls-4{fill-rule:evenodd;}.cls-1,.cls-9{fill:#e3000b;}.cls-4{fill:#ffed00;}.cls-5{fill:#fdc10a;}.cls-6{fill:#fff;}.cls-7{fill:#010100;}.cls-8{fill:#1e5aa8;}.cls-10{fill:#feed00;}</style></defs><path class="cls-3" d="M1679.21,604.84c-5.7-25.21-18.71-45.53-40.29-59.42-19.51-12.55-41.33-18.33-64.8-18.49-32.04-.22-64.07-1.37-94.79,10.37-24.78,9.49-46.28,24.05-65.55,42.33,7.93-7.39,13.68-33.43,18.14-43.32,15.24-33.78,14.27-67.06-7.82-97.1-23.73-32.28-57.27-43.62-96.3-35.93-11.88,2.34-22.6,3.92-34.86,1.21-34.64-7.69-69.37-3.79-103.39,4.3-38.22,9.08-69.96,28.33-90.3,63.32-3.87,6.67-7.63,13.38-11.91,20.86-8.84-35.45-26.93-61.87-62.67-70.68-39.59-9.76-75.01-1.61-102.72,30.8-6.37-4.97-10.13-12.39-16.74-17.09-37.12-26.45-99.31-22.31-126.4,7.93-4.22,4.73-7.93,4.57-12.17-.05-10.29-11.18-23.03-18.25-37.81-21.77-36.52-8.71-69.04-2.26-95.57,25.64-4.22,4.43-6.13,4.06-9.81-.08-23.11-25.83-52.62-32.49-85.6-27.52-21.98,3.31-41.33,12.07-55.1,30.37-4.11,5.48-6.5,5.03-10.75-.03-5.27-6.29-10.8-12.39-17.98-17.04-13.36-8.65-28.09-11.69-43.46-13.81-28.25-3.9-52.86,3.87-74.85,21.45-22.01,17.63-35.18,41.58-47.73,66.03-1.29,2.5-1.64,6.91-5.62,6.15-3.2-.62-2.42-4.57-3.04-7.12-12.31-50.37-43.38-84.04-93.02-87.08-53.78-3.28-93.45,25.69-106.05,77.38-5.7,23.33-7.98,47.27-11.29,71.01-10.29,73.72-20.83,147.39-31.31,221.05-4.14,29.05,2.12,55.1,22.66,76.76,25.51,26.9,58.19,29.72,91.49,23.25,31.1-6.05,52.11-26.82,63.43-56.33,3.14-8.22,6.99-9.97,14.97-8.09,8.63,2.02,17.6,4.46,26.47,2.31,9.16-2.26,13.12,1.16,16.04,9.65,7.85,22.71,23.03,40.18,45.53,47.89,41.23,14.14,79.53,8.92,110.84-24.38,3.57-3.82,4.95-2.45,7.63.59,5.51,6.21,11.31,12.04,18.36,16.72,18.36,12.26,38.75,14.11,60.04,13.87,26.1-.3,46.87-11.1,63.99-29.86,3.68-4.03,5.43-4.38,8.87.03,30.32,39,105.03,41.07,139.49,2.8,3.66-4.06,5.99-3.68,9.68-.11,5.27,5.13,10.62,10.48,16.85,14.24,37.81,22.93,87.64,15.64,117.04-17.01,3.95-4.41,5.59-3.47,8.82.38,13.68,16.15,31.26,25.77,52.17,28.52,6.42.83,6.77,2.66,6.1,8.47-5.19,45.26,12.87,76.35,50.85,91.43,42.25,16.74,85.33,13.12,126.56-5.59,38.24-17.36,61.81-48.54,77.64-86.43,7.07-16.93,11.99-34.54,17.33-53.67,33.7,52.97,79.93,55.36,132.31,35.8-1.56,5.29-2.85,9.7-4.14,14.08-14.94,50.98,14.38,97.1,67.08,103.93,30.91,4,62.08,2.63,93.04-.59,36.2-3.79,68.45-16.85,95.65-41.52,35.15-31.9,50.1-73.51,57.27-118.9,8.63-54.67,17.39-109.33,25.91-164.02,3.52-22.52,6.72-45.02,1.56-67.86l.03.03ZM445.32,518.06c-4.09,32.33-9,64.56-13.52,96.81-5.51,39.27-10.99,78.56-16.5,117.82-3.14,22.52-6.29,45.04-9.41,67.57-4.92,35.4-38,53.89-70.82,39.56-13.63-5.94-23.25-23.52-21.12-38.78,4.68-33.49,9.73-66.95,13.95-100.49,1.05-8.41,1.34-17.07,2.71-26.96-4.68,3.31-5.32,6.8-6.56,10.21-8.14,22.23-15.27,44.88-25.96,66.03-15.94,31.53-46.5,34.13-69.8,24.83-16.72-6.67-23.41-21.04-25.26-37.87-2.07-18.95-3.47-37.95-5.24-56.92-.27-2.93-.05-6.18-3.87-8.87-2.66,18.62-5,36.69-7.85,54.67-4.49,28.19-5.99,56.92-13.25,84.63-8.06,30.8-47.87,44.67-73.83,26.07-14.14-10.11-16.99-24.62-14.67-41.01,8.65-61.2,16.74-122.47,25.8-183.62,5.32-35.88,8.25-72.16,16.26-107.56,8.57-37.89,55.66-53.4,85.84-29,11.05,8.92,16.34,21.53,19.54,34.8,10.54,43.59,20.64,87.29,30.91,130.94.62,2.61.05,6.37,3.33,6.96,3.6.65,3.82-3.41,5-5.64,22.95-44.18,45.74-88.48,68.78-132.63,9.57-18.36,21.53-34.97,42.06-41.98,34.64-11.8,69.12,5.81,63.45,50.45l.03-.03ZM597.22,511.47c-7.44,52.6-15.18,105.16-22.58,157.79-6.02,42.89-11.93,85.79-17.42,128.76-3.71,29.08-21.15,45.74-49.13,45.8-31.18.05-47.01-19.62-42.28-50.39,6.77-44.02,12.28-88.21,18.54-132.31,7.5-52.92,14.46-105.92,23.06-158.65,5.7-34.91,47.89-51.01,76.35-29.89,12.85,9.54,15.61,23.73,13.46,38.92l-.03-.03ZM889.01,505c-3.74,30.83-8.09,61.55-12.34,92.32-4.92,35.61-9.97,71.22-15,106.83-4.73,33.46-9,67-14.43,100.38-4.41,27.04-22.39,40.9-49.29,39.21-23.14-1.45-33.46-17.68-39.64-36.98-10.7-33.33-20.45-66.97-30.53-100.52-1.05-3.47-1.59-7.12-5.48-12.28-4,28.33-7.58,54.4-11.42,80.41-1.83,12.44-2.63,25.08-6.24,37.25-8.9,30.07-49.91,43.46-74.77,24.03-12.87-10.05-16.04-23.89-13.79-39.67,6.45-45.34,12.5-90.73,18.89-136.07,7.28-51.71,14.78-103.42,22.2-155.13.16-1.21.54-2.39.83-3.6,7.71-32.52,34.8-46.23,65.55-32.9,11.18,4.84,17.68,14.19,21.12,25.48,11.02,36.15,21.77,72.38,32.63,108.55.43,1.48.91,2.93,1.4,4.38.48,1.4.64,3.31,2.71,3.01,1.77-.24,2.26-1.94,2.47-3.41,1.21-8.22,2.34-16.42,3.47-24.65,3.33-24.05,6.72-48.08,9.92-72.16.94-7.12,3.17-13.79,5.86-20.32,5.11-12.5,14.08-20.72,27.57-23.49,10.08-2.07,20.26-2.34,30.26-.13,19.38,4.27,30.48,19.57,28.06,39.48l-.03-.03ZM935.1,841.88c-20.29-4.95-30.88-22.95-27.92-43.75,7.77-54.8,15.24-109.63,23.03-164.4,6.18-43.51,12.01-87.08,19.19-130.43,5.83-35.21,46.6-51.6,76-31.18,10.88,7.58,15.05,19.05,14.62,32.33-2.85,21.02-5.67,42.01-8.6,63.02-5.11,36.52-10.35,73.05-15.43,109.6-5.78,41.42-10.88,82.94-17.28,124.27-5.86,37.95-34.91,47.57-63.62,40.56v-.03ZM1365.65,653.59c-3.68,26.77-3.04,18.73-7.2,45.42-5.24,33.38-10.86,66.73-15.91,100.14-4.33,28.57-22.31,44.75-50.45,44.67-23.52,1.4-46.47-15.27-40.69-48.7,10.16-58.72,13.79-82.99,23.06-141.88,4.97-31.5,26.39-47.76,58.02-44.16,22.9,2.61,36.52,20.45,33.19,44.51h-.03ZM1352.59,545.77c-17.44,4.49-33.65,1.13-46.82-12.17-12.04-12.17-12.01-12.36-28.68-7.96-9.11,2.39-18.36,1.83-27.55,1.72-30.26-.32-37.36,18.49-42.46,41.74-.99,4.52,1.83,5,5.38,5.03,7.04.05,14.08-.56,21.04,1.69,10.75,3.47,17.33,10.83,19.32,21.53,6.07,32.41-11.26,59.99-45.5,60.17-15.29.08-14.75.67-17.28,15.72-9.7,58.21-15.86,117.02-29.46,174.53-5.38,22.74-13.73,44.56-27.6,63.96-18.3,25.59-43.75,37.98-74.18,41.15-13.76,1.45-27.6,1.29-41.33-1.77-23.3-5.21-34.91-19.46-33.14-41.52,1.64-20.48,17.71-34.91,39.99-35.85,3.06-.13,6.18.19,9.25-.08,14.65-1.21,25.72-7.66,31.53-21.77,8.28-20.1,11.29-41.47,14.84-62.67,5.48-32.73,10.32-65.58,15.48-98.37,1.34-8.49,2.8-16.99,4.33-25.45.89-4.84-.35-7.87-5.86-7.96-14.27-.22-26.12-4.3-30.93-19.54-5.62-17.74-2.96-34.16,8.65-48.62,7.69-9.54,18.44-15.61,30.53-14.78,11.99.83,13.36-5.35,14.97-14.35,3.57-20.02,9.51-39.4,18.92-57.57,15.94-30.75,42.81-45.61,75.57-51.44,13.92-2.47,28-4.22,42.22-2.98,8.3,0,16.64-.51,24.89.13,9.94.78,18.76,5,23.92,13.73,3.41,5.75,5.29,4.7,9.11.81,12.52-12.85,28-17.74,45.5-14.65,28.41,5.03,43.24,30.21,34.88,60.07-5.59,20-19.81,32.44-39.61,37.55l.08-.03ZM1634.35,643.54c-10.32,66.84-20.53,133.68-31.87,200.33-6.05,35.53-20.56,67.03-51.95,88.07-22.74,15.24-48.35,20.86-75.25,21.45-18.46.4-36.95-.11-55.42.13-14.92.19-28.3-3.49-34.27-18.25-6.42-15.8-4.03-31.58,6.83-45.15,9-11.26,21.39-16.26,35.66-16.45,13.84-.16,27.71,0,41.55-.05,21.42-.13,34.21-9.06,40.47-29.48,3.17-10.29,4.7-21.07,3.52-32.25-2.2,3.52-4.22,7.18-6.67,10.51-15.48,21.12-36.79,28.14-61.79,23.65-27.52-4.95-43.73-23.49-48.46-49.48-12.42-68.43-.35-131.21,50.15-182.51,26.39-26.8,58.88-40.72,96.99-40.02,14.46.27,29.13-1.1,43.32.94,35.1,5.11,52.89,31.42,47.14,68.56h.03Z"/><path class="cls-7" d="M1487.24,734.43c1.13-28.03,6.1-54.05,20.59-77.48,6.21-10.02,15.05-15.78,27.2-16.34,5.81-.27,7.74,1.42,6.77,7.26-3.98,23.92-7.69,47.89-11.56,71.84-1.83,11.18-2.34,22.63-7.04,33.19-4.57,10.24-11.21,15.21-19.19,14.35-8.25-.89-14.08-7.85-15.61-19.05-.67-4.86-.83-9.78-1.16-13.73v-.03Z"/><path class="cls-6" d="M330.64,673.56c-4.68,3.31-5.32,6.8-6.56,10.21-8.14,22.23-15.27,44.88-25.96,66.03-15.94,31.53-46.5,34.13-69.8,24.83-16.72-6.67-23.41-21.04-25.26-37.87-2.07-18.95-3.47-37.95-5.24-56.92-.27-2.93-.05-6.18-3.87-8.87-2.66,18.62-5,36.69-7.85,54.67-4.49,28.19-5.99,56.92-13.25,84.63-8.06,30.8-47.87,44.67-73.83,26.07-14.14-10.11-16.99-24.62-14.67-41.01,8.65-61.2,16.74-122.47,25.8-183.62,5.32-35.88,8.25-72.16,16.26-107.56,8.57-37.89,55.66-53.4,85.84-29,11.05,8.92,16.34,21.53,19.54,34.8,10.54,43.59,20.64,87.29,30.91,130.94.62,2.61.05,6.37,3.33,6.96,3.6.65,3.82-3.41,5-5.64,22.95-44.18,45.74-88.48,68.78-132.63,9.57-18.36,21.53-34.97,42.06-41.98,34.64-11.8,69.12,5.81,63.45,50.45-4.09,32.33-9,64.56-13.52,96.81-5.51,39.27-10.99,78.56-16.5,117.82-3.14,22.52-6.29,45.04-9.41,67.57-4.92,35.4-38,53.89-70.82,39.56-13.63-5.94-23.25-23.52-21.12-38.78,4.68-33.49,9.73-66.95,13.95-100.49,1.05-8.41,1.34-17.07,2.71-26.96l.03-.03Z"/><path class="cls-6" d="M722.27,693.96c-4,28.33-7.58,54.4-11.42,80.41-1.83,12.44-2.63,25.08-6.24,37.25-8.9,30.07-49.91,43.46-74.77,24.03-12.87-10.05-16.02-23.89-13.79-39.67,6.45-45.34,12.5-90.73,18.89-136.07,7.28-51.71,14.78-103.42,22.2-155.13.16-1.21.54-2.39.83-3.6,7.71-32.52,34.8-46.23,65.55-32.9,11.18,4.84,17.68,14.19,21.12,25.48,11.02,36.15,21.77,72.38,32.63,108.55.43,1.48.91,2.93,1.4,4.38.48,1.4.64,3.31,2.71,3.01,1.77-.24,2.26-1.94,2.47-3.41,1.21-8.22,2.34-16.42,3.47-24.65,3.33-24.05,6.72-48.08,9.92-72.16.94-7.12,3.17-13.79,5.86-20.32,5.11-12.5,14.08-20.72,27.57-23.49,10.08-2.07,20.26-2.34,30.26-.13,19.38,4.27,30.48,19.57,28.06,39.48-3.74,30.83-8.09,61.55-12.34,92.32-4.92,35.61-9.97,71.22-15,106.83-4.73,33.46-9,67-14.43,100.38-4.41,27.04-22.36,40.9-49.29,39.21-23.14-1.45-33.46-17.68-39.64-36.98-10.7-33.33-20.45-66.97-30.53-100.52-1.05-3.47-1.59-7.12-5.48-12.28l-.03-.03Z"/><path class="cls-9" d="M1253.87,448.15c8.3,0,16.64-.51,24.89.13,9.94.78,18.76,5,23.92,13.73,3.41,5.75,5.29,4.7,9.11.81,12.52-12.85,28-17.74,45.5-14.65,28.41,5.03,43.24,30.21,34.88,60.07-5.59,20-19.81,32.44-39.61,37.55-17.44,4.49-33.65,1.13-46.82-12.17-12.04-12.17-12.01-12.36-28.68-7.96-9.11,2.39-18.36,1.83-27.55,1.72-30.26-.32-37.36,18.49-42.46,41.74-.99,4.52,1.83,5,5.38,5.03,7.04.05,14.08-.56,21.04,1.69,10.75,3.47,17.33,10.83,19.32,21.53,6.07,32.41-11.26,59.99-45.5,60.17-15.29.08-14.75.67-17.28,15.72-9.7,58.21-15.86,117.02-29.46,174.53-5.38,22.74-13.73,44.56-27.6,63.96-18.3,25.59-43.75,37.98-74.18,41.15-13.76,1.45-27.6,1.29-41.33-1.77-23.3-5.21-34.91-19.46-33.14-41.52,1.64-20.48,17.71-34.91,39.99-35.85,3.06-.13,6.18.19,9.25-.08,14.65-1.21,25.72-7.66,31.53-21.74,8.28-20.1,11.29-41.47,14.84-62.67,5.48-32.73,10.32-65.58,15.48-98.37,1.34-8.49,2.8-16.99,4.33-25.45.89-4.84-.35-7.87-5.86-7.96-14.27-.22-26.12-4.3-30.93-19.54-5.62-17.74-2.96-34.16,8.65-48.62,7.69-9.54,18.44-15.61,30.53-14.78,11.99.83,13.36-5.35,14.97-14.35,3.57-20.02,9.51-39.4,18.92-57.59,15.94-30.75,42.81-45.61,75.57-51.44,13.92-2.47,28-4.22,42.22-2.98l.08-.03Z"/><path class="cls-9" d="M1513.63,811.89c-2.2,3.52-4.22,7.18-6.67,10.51-15.48,21.12-36.79,28.14-61.79,23.65-27.52-4.95-43.73-23.49-48.46-49.48-12.42-68.43-.35-131.21,50.15-182.51,26.39-26.8,58.88-40.72,96.99-40.02,14.46.27,29.13-1.1,43.32.94,35.1,5.11,52.89,31.42,47.14,68.56-10.32,66.84-20.53,133.68-31.87,200.33-6.05,35.53-20.56,67.03-51.95,88.07-22.74,15.24-48.35,20.86-75.25,21.45-18.46.4-36.95-.11-55.42.13-14.92.19-28.3-3.49-34.27-18.25-6.42-15.8-4.03-31.58,6.83-45.15,9-11.26,21.39-16.26,35.66-16.45,13.84-.16,27.71,0,41.55-.05,21.42-.13,34.21-9.06,40.47-29.48,3.17-10.29,4.7-21.07,3.52-32.25h.03ZM1487.24,734.43c.32,3.95.48,8.87,1.16,13.73,1.53,11.18,7.36,18.14,15.61,19.05,7.98.86,14.62-4.11,19.19-14.35,4.7-10.56,5.21-22.04,7.04-33.19,3.9-23.95,7.61-47.89,11.56-71.84.97-5.83-.99-7.53-6.77-7.26-12.15.59-21.02,6.32-27.2,16.34-14.49,23.44-19.46,49.45-20.59,77.48v.03Z"/><path class="cls-6" d="M508.1,843.82c-31.18.05-47.01-19.62-42.28-50.39,6.77-44.02,12.28-88.21,18.54-132.31,7.5-52.92,14.46-105.92,23.06-158.65,5.7-34.91,47.89-51.01,76.35-29.89,12.85,9.54,15.61,23.73,13.46,38.92-7.44,52.6-15.18,105.16-22.58,157.79-6.02,42.89-11.93,85.79-17.42,128.76-3.71,29.08-21.15,45.74-49.13,45.8l-.03-.03Z"/><path class="cls-6" d="M1040.02,504.43c-2.85,21.02-5.67,42.01-8.6,63.02-5.11,36.52-10.35,73.05-15.43,109.6-5.78,41.42-10.88,82.94-17.28,124.27-5.86,37.95-34.91,47.57-63.62,40.56-20.29-4.95-30.88-22.95-27.92-43.75,7.77-54.8,15.24-109.63,23.03-164.4,6.18-43.51,12.01-87.08,19.19-130.43,5.83-35.21,46.6-51.6,76-31.18,10.88,7.58,15.05,19.05,14.62,32.33v-.03Z"/><path class="cls-8" d="M1292.09,843.82c-23.52,1.4-46.47-15.27-40.69-48.7,10.16-58.72,13.79-82.99,23.06-141.88,4.97-31.5,26.39-47.76,58.02-44.16,22.9,2.61,36.52,20.45,33.19,44.51-3.68,26.77-3.04,18.73-7.2,45.42-5.24,33.38-10.86,66.73-15.91,100.14-4.33,28.57-22.31,44.75-50.45,44.67h-.03Z"/><path class="cls-10" d="M1716.11,601.48c-9.3-53.91-53.81-99.52-107.72-107.91-36.09-5.62-72.3-5.24-108.5.05-6.91,1.02-15.7,7.28-19.78,3.17-4.11-4.17-2.85-13.81-3.57-21.1-5.86-59.45-62.49-115.7-133.36-110.81-21.69,1.51-42.87,3.33-64.69.24-24.11-3.41-48.62-.73-72.7,2.82-41.04,6.05-78.61,20.18-108.87,49.8-4.17,4.09-6.07,2.61-9.49-.59-21.85-20.53-47.22-32.39-77.75-33.78-28-1.29-54.56,2.37-79.23,16.31-4.11,2.31-7.77,4.17-13.46,1.13-45.82-24.43-92.37-24.38-139.03-2.23-3.66,1.75-6.42,2.26-10.27.38-44.05-21.69-88.1-22.33-131.85.73-5.16,2.71-9.08,3.01-14.3-.35-13.63-8.79-28.76-13.52-44.99-15.27-33.06-3.6-64.48.86-93.37,18.14-4.33,2.58-7.42,1.96-11.66-.62-37.25-22.6-77.03-23.44-117.45-11.37-23.79,7.12-43.06,22.23-59.64,40.53-4.27,4.73-6.83,5.29-11.23-.16-10.78-13.22-23.73-24.03-38.92-32.06-36.44-19.3-74.58-20.29-112.8-8.09-37.38,11.93-63.7,37.03-79.01,73.61-10.64,25.4-12.9,52.38-16.69,79.15-11.29,80.12-22.55,160.21-34.16,240.27-5.32,36.63,2.28,69.88,25.16,98.98,24.11,30.67,56.98,44.21,95.22,44.75,48.54.7,88.05-17.63,115.73-58.43,4.84-7.15,7.61-5.11,11.02.67,12.74,21.61,30.07,38.14,53.67,47.33,40.9,15.91,81.16,15.32,120.16-6.05,6.61-3.63,11.58-3.9,18.36.03,19.51,11.34,40.93,16.23,63.56,16.72,25.61.54,49.26-6.13,71.65-18.09,3.47-1.85,6.4-3.63,10.97-1.05,45.42,25.56,91.4,25.61,137.55,2.02,5.19-2.66,9.3-2.58,14.57.22,37.76,20.1,77.21,23.97,116.08,5.51,15.13-7.2,26.63-8.01,40.15.62,3.49,2.23,5.27,3.9,5.64,8.17,4.65,52.03,36.12,85.63,83.61,101.86,26.42,9.03,53.97,9.08,81.35,7.2,38.81-2.69,73.53-16.07,103.63-41.42,24.11-20.29,41.01-45.58,54.26-73.69,1.48-3.14,1.69-7.71,7.39-4.86,19.65,9.86,40.61,13.98,62.51,13.44,4.52-.11,5.56,1.88,6.02,5.97,2.93,25.51,12.34,48.03,31.04,66.25,20.8,20.29,45.21,32.41,74.47,34.59,15.99,1.18,31.98,1.21,51.31,1.1,20.08.48,43.38-.08,66.46-5,43.16-9.19,80.22-29.03,109.98-61.79,34.08-37.52,48.27-83.48,55.77-132.31,8.36-54.42,17.2-108.77,25.59-163.16,3.66-23.73,5.83-47.38,1.64-71.57h-.03ZM1677.65,672.7c-8.52,54.69-17.28,109.36-25.91,164.02-7.18,45.39-22.12,87-57.27,118.9-27.17,24.67-59.45,37.73-95.65,41.52-30.99,3.25-62.14,4.6-93.04.59-52.7-6.83-82.02-52.95-67.08-103.93,1.29-4.38,2.58-8.79,4.14-14.08-52.38,19.57-98.61,17.17-132.31-35.8-5.35,19.11-10.27,36.74-17.33,53.67-15.83,37.92-39.4,69.07-77.64,86.43-41.23,18.71-84.31,22.36-126.56,5.59-37.98-15.05-56.04-46.15-50.85-91.43.67-5.81.32-7.63-6.1-8.47-20.91-2.74-38.49-12.36-52.17-28.52-3.25-3.82-4.86-4.76-8.82-.38-29.4,32.65-79.26,39.94-117.04,17.01-6.21-3.76-11.58-9.11-16.85-14.24-3.68-3.6-5.99-3.98-9.68.11-34.48,38.27-109.2,36.2-139.49-2.8-3.44-4.41-5.16-4.06-8.87-.03-17.12,18.76-37.89,29.56-63.99,29.86-21.31.24-41.71-1.61-60.04-13.87-7.01-4.68-12.85-10.54-18.36-16.72-2.69-3.04-4.06-4.41-7.63-.59-31.31,33.33-69.61,38.54-110.84,24.38-22.5-7.71-37.68-25.21-45.53-47.89-2.93-8.49-6.91-11.88-16.04-9.65-8.87,2.18-17.85-.27-26.47-2.31-8.01-1.88-11.83-.13-14.97,8.09-11.31,29.51-32.33,50.28-63.43,56.33-33.27,6.48-65.98,3.66-91.49-23.25-20.53-21.66-26.8-47.7-22.66-76.76,10.48-73.69,21.02-147.36,31.31-221.05,3.31-23.76,5.59-47.7,11.29-71.01,12.63-51.68,52.3-80.65,106.05-77.38,49.64,3.04,80.73,36.71,93.02,87.08.62,2.55-.16,6.53,3.04,7.12,3.98.78,4.35-3.66,5.62-6.15,12.55-24.46,25.69-48.4,47.73-66.03,21.98-17.58,46.6-25.34,74.85-21.45,15.37,2.12,30.13,5.16,43.46,13.81,7.18,4.65,12.71,10.75,17.98,17.04,4.25,5.08,6.61,5.54,10.75.03,13.73-18.3,33.08-27.06,55.1-30.37,32.98-4.97,62.49,1.72,85.6,27.52,3.68,4.14,5.59,4.52,9.81.08,26.53-27.87,59.05-34.35,95.57-25.64,14.78,3.52,27.49,10.59,37.81,21.77,4.25,4.6,7.96,4.76,12.17.05,27.09-30.24,89.28-34.37,126.4-7.93,6.61,4.7,10.37,12.12,16.74,17.09,27.71-32.44,63.13-40.58,102.72-30.8,35.74,8.82,53.83,35.21,62.67,70.68,4.25-7.47,8.04-14.19,11.91-20.86,20.34-34.99,52.11-54.24,90.3-63.32,34.05-8.09,68.75-11.99,103.39-4.3,12.23,2.71,22.98,1.13,34.86-1.21,39.02-7.69,72.56,3.68,96.3,35.93,22.09,30.02,23.06,63.29,7.82,97.1-4.46,9.89-10.21,35.93-18.14,43.32,19.24-18.3,40.77-32.87,65.55-42.33,30.72-11.74,62.75-10.56,94.79-10.37,23.44.16,45.29,5.94,64.8,18.49,21.61,13.89,34.59,34.24,40.29,59.42,5.16,22.84,1.93,45.34-1.56,67.86l-.03-.03Z"/><path class="cls-10" d="M1416.58,475.97c-3.25-11.21-10.37-18.87-21.37-22.82-5-1.8-10.32-1.88-15.51-2.69-1.08-.16-1.64-.51-1.45-1.67.67-5.13,1.37-10.24,2.04-15.37-.3-.73-.19-1.4.27-2.04.62-5.32-3.41-10.86-8.71-11.61-12.55-1.77-25.1-3.49-37.65-5.08-5.64-.7-11.13,3.74-11.72,9.22,0,.08.05.13.08.22,0,0-.08.05-.11.05-.13.97-.27,1.94-.4,2.93.3.48.24.94-.19,1.34-.13,1.1-.3,2.18-.43,3.28.27.86.16,1.67-.32,2.42-.05.38-.11.78-.16,1.16-.27,1.72-.64,3.41-.75,5.13-.11,1.59-.64,1.94-2.23,1.72-4.54-.59-9.06-1.59-13.71-1.53-16.29.13-29.99,12.15-32.25,27.66-2.9,20-5.51,40.02-8.09,60.04-1.16,8.9,1.34,16.9,6.83,23.97,3.98,5.11,9.03,8.79,15.24,10.8,2.69.89,2.69.91,2.31,3.74-.59,4.62-1.16,9.25-1.75,13.87-.91,3.82.21,5.48,4.09,5.99,26.02,3.49,52.03,7.01,78.05,10.51,3.14.43,4.73-.89,4.89-4.06-.16-1.67.05-3.28.64-4.84.46-2.15.75-4.33.89-6.53-.13-1.77.11-3.52.7-5.19.08-.24.16-.48.24-.75,2.58-.05,5.13-.22,7.63-.81,14.27-3.36,23.92-14,25.91-28.54,2.58-18.95,5.11-37.89,7.69-56.84.62-4.62.59-9.19-.73-13.65l.03-.03ZM1371.29,501.07c-.56,4.19-4.17,6.96-8.33,6.4-4.25-.56-6.85-4.06-6.26-8.41.56-4.06,4.19-6.75,8.33-6.15,3.87.54,6.77,4.33,6.26,8.17ZM1313.4,521.2c1.59-.67,3.41-.19,4.52,1.18,3.74,4.62,8.41,7.96,14.06,9.73,7.28,2.28,14.54,1.99,21.58-1.18,1.8-.81,3.49-1.8,5.11-2.9,1.96-1.34,4.22-1.08,5.46.56,1.24,1.64.83,3.79-1.05,5.32-5.4,4.38-11.69,6.5-18.52,7.26-2.82.32-5.59.11-8.36-.38-9.59-1.13-17.31-5.62-23.44-12.98-.73-.86-1.45-1.77-1.42-3.01,0-1.61.54-2.96,2.12-3.63l-.05.03ZM1321.47,487.04c4.03.54,6.69,4.19,6.1,8.36-.56,4.14-4.09,6.77-8.28,6.21-4.09-.56-6.85-4.17-6.32-8.25.54-4.06,4.33-6.88,8.47-6.32h.03Z"/><path class="cls-5" d="M1375.14,581.75c-.13-1.77.11-3.52.7-5.19-.03,1.75-.27,3.49-.7,5.19Z"/><path class="cls-5" d="M1373.61,593.12c-.16-1.67.05-3.28.64-4.84,0,1.64-.21,3.25-.64,4.84Z"/><path class="cls-5" d="M1321.41,431.73c.27.86.16,1.67-.32,2.42-.05-.83.05-1.61.32-2.42Z"/><path class="cls-5" d="M1380.3,433.43c-.3-.73-.19-1.4.27-2.04.08.7,0,1.37-.27,2.04Z"/><path class="cls-5" d="M1322.03,427.11c.3.48.24.94-.19,1.34.05-.46.13-.89.19-1.34Z"/><path class="cls-5" d="M1322.46,423.91s.05.13.08.22c0,0-.08.05-.11.05-.05-.11-.05-.19.03-.3v.03Z"/><path class="cls-3" d="M1336.17,540.79c-9.57-1.13-17.31-5.62-23.44-12.98-.73-.86-1.45-1.77-1.42-3.01,0-1.61.54-2.96,2.12-3.63,1.59-.67,3.41-.19,4.52,1.18,3.74,4.62,8.41,7.96,14.06,9.73,7.28,2.28,14.54,1.99,21.58-1.18,1.8-.81,3.49-1.8,5.11-2.9,1.96-1.34,4.22-1.08,5.46.56s.83,3.79-1.05,5.32c-5.4,4.38-11.69,6.5-18.52,7.26-2.82.32-5.59.11-8.36-.38l-.05.03Z"/><path class="cls-3" d="M1362.96,507.5c-4.25-.56-6.85-4.06-6.26-8.41.56-4.06,4.19-6.75,8.33-6.15,3.87.54,6.77,4.33,6.26,8.17-.56,4.19-4.17,6.96-8.33,6.4Z"/><path class="cls-3" d="M1327.57,495.4c-.56,4.14-4.09,6.77-8.28,6.21-4.09-.56-6.85-4.17-6.32-8.25.54-4.06,4.33-6.88,8.47-6.32,4.03.54,6.69,4.19,6.1,8.36h.03Z"/><path class="cls-6" d="M2701.63,8.74v1289.79h1289.8V8.74h-1289.8Z"/><path class="cls-4" d="M2701.63,1298.53V8.74h1289.78v1289.79s-1289.78,0-1289.78,0h0ZM3879.4,668.56c11.29-33.45,24.08-83.52,26.19-123.7,1.6-30.31-2.48-72.77-31.07-102.94-22.81-24.1-57.66-36.27-103.59-36.27-58.02,0-104.77,20.48-138.97,60.98l-9.03,10.65-6-12.59c-4.89-10.26-8.4-14.47-13.73-20.48-23.38-26.45-62.58-39.86-116.52-39.85-49.41,0-94.05,14.81-125.7,41.7l-8.01,6.8-5.52-8.98c-14.95-24.29-52.2-40.02-94.88-40.02-61.41.01-123.38,8.35-160.76,68.61l-15.49,24.87-1.21-29.29c-.94-22.66-3.01-32.07-13.55-43.23-11.59-12.3-31.1-18.27-59.63-18.25-41.89,0-73.37,18.27-96.27,55.88-35.24,56.3-120.43,241.48-118.55,329.49,1.23,57.12,39.35,92.08,101.99,93.53,51.62,1.25,92.65-12,118.72-38.3l6.65-6.73,6.39,6.91c23.43,25.43,59.04,39.45,100.3,39.45,52.54,0,97.46-16.33,123.27-44.82l7.04-7.76,6.62,8.14c24.16,29.67,61.48,45.23,107.94,45.04,60.59-.27,117.18-28.11,155.24-76.34l9.98-12.64,5.57,15.13c23.46,63.79,87.03,73.29,122.89,73.31,121.76,0,174.34-83.54,219.68-218.3h0Z"/><path class="cls-1" d="M2701.63,1298.53V8.74h1289.78v1289.79s-1289.78,0-1289.78,0h0ZM3887.48,762.98c16.86-34.74,48.57-121.7,54.43-168.65l.07-.52c7.15-57.32,13.91-111.55-24.77-165.45-27.5-38.3-74.35-64-145.63-64.01-53.88,0-102,14.6-140.48,46.6-32.95-32.61-80.21-47.41-143.81-47.4-49.77,0-91.54,11.38-127.92,33.22-26.41-20.98-57.4-34.09-106.79-34.09-44.77,0-107.62,2.32-155.03,42.58-10.96-22.36-33.24-39.92-94.7-39.92-56.62,0-102.81,26.78-133.1,76.51-40.44,64.6-126.29,251.15-124.1,353.06,1.63,76.71,59.16,129.56,142.49,131.55,50.07,1.17,92.72-9.55,125.26-31.15,29.43,21.21,67.03,32.66,108.82,32.66,50.01,0,95.12-13.12,128.58-36.7,30.31,24.02,70.07,37.01,115.05,37.01,58.36.02,112.59-20.13,156.4-58.47,29.88,38.1,81.06,57.9,143.22,57.91,116.37,0,176.81-71.56,222.01-164.74Z"/><path class="cls-2" d="M2692.75,1307.25V0h1307.25l-.02,1307.23-1307.23.02ZM3981.99,1289.24V18s-1271.25,0-1271.25,0l.03,1271.24h1271.23Z"/><path class="cls-2" d="M3910.05,394.36c-.03-17.27,13.94-31.29,31.21-31.32.03,0,.06,0,.09,0,17.28-.03,31.31,13.95,31.34,31.22v.1c.03,17.26-13.94,31.28-31.2,31.32-.05,0-.09,0-.14,0-17.26.03-31.27-13.94-31.29-31.19,0-.04,0-.08,0-.12ZM3941.36,369.25c13.93,0,25.25,11.22,25.22,25.15.04,13.93-11.33,25.18-25.22,25.18-13.87-.02-25.1-11.28-25.08-25.15,0,0,0-.02,0-.03-.06-13.83,11.1-25.09,24.93-25.15.05,0,.1,0,.15,0ZM3953.56,404.19l3.74,6.54-8.11.05-2.59-5.3c-1.16-2.32-2.65-4.46-4.42-6.35-1.28-1.33-2.45-1.66-5.33-1.66h-1.19s-.01,13.3-.01,13.3h-6.69v-32.44h16.16c6.96,0,10.23,3.89,10.23,9.03.01,4.9-3.3,8.42-8.77,9.08v.18c2.8.97,3.72,1.87,6.99,7.58h0ZM3935.63,383.36v8.91h6.78c4.53,0,6.03-2.21,5.96-4.5,0-2.86-2.27-4.43-6.69-4.43l-6.05.02ZM3625.01,460.8c31.58-37.4,78.3-64.19,145.87-64.19,116.96,0,147.56,76.47,143.72,148.74-2.27,43.43-16.21,95.17-26.62,126.11-46.26,137.49-101.82,224.43-228.26,224.41-57.7.01-110.51-22.5-131.31-79.22-38,48.09-96.09,79.48-162.32,79.81-50.62.25-89.98-17.64-115-48.37-29.7,32.78-79.97,47.79-129.93,47.81-44.88-.03-82.36-15.67-106.95-42.38-27.41,27.64-70.48,42.31-125.33,41.03-70.26-1.68-109.52-43.84-110.81-102.36-1.93-90.59,84.35-277.62,119.91-334.4,24.55-40.29,58.64-60.06,103.93-60.08,24.86.02,50.39,4.34,66.17,21.06,12.98,13.73,15.06,25.93,16.02,49.02,39.8-64.13,106.87-72.84,168.42-72.83,47.09,0,86.18,17.63,102.58,44.27,31.56-26.83,77.02-43.85,131.55-43.85,55.81,0,97.39,13.62,123.27,42.91,5.71,6.43,9.77,11.34,15.1,22.53h0ZM3009.32,776.47c2.08-21.9-14.33-45.56-79.79-34.2,6.5-14.56,16.17-34.52,27.14-57.18h0c35.16-72.62,83.76-172.95,84.67-212.2.49-19.35-7.31-35.49-38.69-35.48-33.16-.01-53.96,13.86-71,41.85-36.95,59.01-115.42,237.01-113.77,313.95.93,43.98,35.03,61.34,72.92,62.22,52.22,1.21,112.37-13.45,118.53-78.97h0ZM3142.59,681.84c-4.36,11.72-12.55,36.27-19.17,62.25,21.48-5.36,37.57-9.07,65.14-8.43,31.44.77,51.56,13.78,51.54,39.8,0,62.99-69.67,81.5-117.94,81.51-53.06,0-99.67-30.18-99.67-88.2,0-68.02,36.86-171.16,71.46-239.83,42.47-84.36,85.89-95.57,160.65-95.57,32.87,0,70.71,14.03,70.71,45.06,0,43.01-36.37,59.41-72.5,61.48-15.45.89-39.17,1.74-53.36.72,0,0-12.06,18.34-24.81,50.95,66.87-9.41,95.25,5.77,83.97,44.45-15.28,52.28-60.58,55.73-116.03,45.8h0ZM3432.83,543.02c8.82-12.37,20.63-23.82,38.73-23.82,22.19,0,20.04,11.74,14.77,26.73-14.95,42.7,30.2,43.83,41.23,42.96,39.42-3.07,61.14-28.54,66.49-71.93,7.32-59.07-42.45-81.75-105.54-81.75-105.16,0-146.44,64.32-185.82,156.26-18.5,43.19-41.8,117-41.79,164,0,66.02,40.16,101.81,104.9,101.81,94.54,0,161.34-75.38,180.42-169.31,5.88-28.9,13.12-83.15-60.31-80.13-37.27,1.54-59.76,9.76-71.61,47.85-12.2,39.23,32.05,40.3,32.05,40.3-8.9,40.56-34.97,65.15-58.19,65.17-14.5,0-27.68-6.29-23.27-36.97,6.56-44.85,48.56-153.95,67.93-181.18h0ZM3868.7,596.82c-11.16,55.34-36.14,120.85-63.29,169.66-44.3,79.63-98.04,90.78-145.02,90.19-46.95-.56-99.89-17.87-100.29-90.34-.28-52,22.14-125.44,41.19-173.52,33.23-87.22,67.11-158.36,174.37-157.09,125.05,1.46,102.74,112.68,93.03,161.1h0ZM3711.85,738.7c17.39-29.45,66.33-163.03,67.66-196.43.39-9.73-1.21-21.06-16.9-21.24-10.76-.15-20.11,1.93-28.52,14.92-18.9,24.56-74.22,175.64-73.28,205.78.34,10.84,6.39,20.3,19.7,20.3,15.32.01,23.81-10.53,31.34-23.33h0Z"/><path class="cls-3" d="M2149.12,584.72c-15.06-8.53-31.62-12.8-49.69-12.8s-32.56,3.82-44.24,11.48c-2.89,1.89-5.58,4.04-8.09,6.43v-87.55h-85.09v279.34h80.95v-16.98c3.26,3.65,6.88,6.82,10.92,9.45,11.54,7.53,26.73,11.3,45.55,11.3s34.64-4.33,49.69-12.99c15.06-8.66,27.11-20.96,36.14-36.9,9.04-15.93,13.55-34.95,13.55-57.03s-4.51-41.09-13.55-57.03c-9.03-15.94-21.08-28.17-36.14-36.71ZM2108.08,700.86c-3.01,6.15-7.03,10.73-12.05,13.74-5.02,3.01-10.67,4.52-16.94,4.52s-11.92-1.51-16.94-4.52c-5.02-3.01-9.03-7.59-12.05-13.74-3.01-6.14-4.52-13.61-4.52-22.4s1.51-16.5,4.52-22.4c3.01-5.9,7.02-10.35,12.05-13.37,5.02-3.01,10.67-4.51,16.94-4.51s11.92,1.51,16.94,4.51c5.01,3.01,9.03,7.47,12.05,13.37,3.01,5.9,4.52,13.36,4.52,22.4s-1.51,16.25-4.52,22.4Z"/><path class="cls-3" d="M2368.6,575.68l-43.33,110.42-42.51-110.42h-87.34l86.66,208.28c-1.2,1.45-2.46,2.78-3.84,3.86-4.02,3.14-9.79,4.7-17.32,4.7-5.02,0-10.23-1.01-15.63-3.01-5.4-2.01-10.23-4.65-14.49-7.9l-28.24,58.35c7.02,5.51,16.38,9.98,28.05,13.36,11.67,3.39,23.15,5.09,34.45,5.09,14.55,0,27.92-2.14,40.09-6.4,12.17-4.27,23.21-11.67,33.13-22.21,9.91-10.54,18.63-25.23,26.16-44.05l84.71-210.07h-80.57Z"/></svg>