<?xml version="1.0" encoding="UTF-8"?><svg id="Calque_1" xmlns="http://www.w3.org/2000/svg" viewBox="0 0 36.54 50"><defs><style>.cls-1{stroke-width:0px;}</style></defs><path class="cls-1" d="M23.46,39.34c-.05-.45-.38-.74-.83-.74h-.01c-.16,0-.32,0-.48,0-.19,0-.38,0-.58,0,0-.43,0-.85,0-1.28v-.37c-.01-.73-.49-.88-.89-.89-.8,0-4,0-4.81,0-.4,0-.88.16-.88.89v.33c-.01.43-.02.86,0,1.32-.2,0-.39,0-.58,0-.16,0-.32,0-.47,0-.46-.02-.79.29-.84.74-.01.12-.02.24-.02.36v9.2c0,.08,0,.15,0,.23.04.56.34.86.9.87h8.33s.28,0,.28,0c.56-.01.87-.31.9-.87,0-.07,0-.15,0-.23v-9.2c0-.12,0-.24-.02-.36Z"/><path class="cls-1" d="M10.42,21.67c0-.12,0-.24-.02-.36-.05-.45-.37-.74-.83-.74h0c-.16,0-.32,0-.48,0-.18,0-.37,0-.58,0,0-.43,0-.85,0-1.28v-.37c-.01-.73-.49-.88-.89-.88-.8,0-4,0-4.81,0-.4,0-.88.16-.88.89v.31c0,.44-.02.87,0,1.34-.19,0-.39,0-.58,0-.12,0-.25,0-.37,0-.04,0-.09,0-.12,0-.46,0-.78.29-.83.75-.01.12-.02.24-.02.36v9.2c0,.08,0,.15,0,.22.04.56.34.86.9.87h8.33s.28,0,.28,0c.56-.01.87-.31.91-.87,0-.07,0-.15,0-.22v-.07s0-9.14,0-9.14Z"/><path class="cls-1" d="M23.46,21.31c-.05-.45-.38-.74-.83-.74h0c-.16,0-.32,0-.48,0-.18,0-.37,0-.58,0,0-.43,0-.85,0-1.28v-.37c-.01-.73-.49-.88-.89-.88-.8,0-4,0-4.81,0-.4,0-.88.16-.88.89v.33c-.01.43-.02.86,0,1.32-.19,0-.39,0-.58,0-.12,0-.25,0-.37,0-.04,0-.09,0-.12,0-.46,0-.78.29-.83.74-.01.12-.02.24-.02.36v9.2c0,.08,0,.15,0,.22.04.56.34.86.9.87h8.33s.28,0,.28,0c.56-.01.87-.31.9-.87,0-.07,0-.15,0-.22v-9.2c0-.12,0-.24-.02-.36Z"/><path class="cls-1" d="M23.46,3.28c-.05-.46-.36-.78-.84-.74-.16,0-.32,0-.48,0-.19,0-.37,0-.58,0,0-.43,0-.85,0-1.28v-.37c-.01-.73-.49-.88-.89-.88C19.87,0,16.67,0,15.87,0c-.4,0-.88.16-.88.89v.33c-.01.43-.02.86,0,1.32-.19,0-.39,0-.58,0-.16,0-.32,0-.48,0-.52,0-.79.28-.84.74-.01.12-.02.24-.02.36v9.2c0,.08,0,.15,0,.22.04.56.34.86.91.87h8.33s.27,0,.27,0c.56-.01.87-.31.9-.87,0-.07,0-.15,0-.22V3.64c0-.12,0-.24-.02-.36Z"/><path class="cls-1" d="M36.54,21.67c0-.12,0-.24-.02-.36-.05-.45-.38-.74-.83-.74h0c-.16,0-.32,0-.48,0-.19,0-.37,0-.58,0,.01-.44,0-.88,0-1.32v-.33c-.01-.73-.49-.89-.89-.89-.8,0-4,0-4.8,0-.4,0-.88.16-.88.89v.33c-.01.43-.02.86,0,1.32-.19,0-.38,0-.58,0-.12,0-.25,0-.37,0-.04,0-.09,0-.12,0-.46,0-.78.29-.83.74-.01.12-.02.24-.02.36v9.2c0,.08,0,.15,0,.22.04.57.34.86.9.87h8.33s.28,0,.28,0c.56-.01.87-.31.9-.87,0-.07,0-.15,0-.22v-9.2Z"/></svg>