<svg xmlns="http://www.w3.org/2000/svg" version="1.1" xmlns:xlink="http://www.w3.org/1999/xlink" xmlns:svgjs="http://svgjs.dev/svgjs" width="1000" height="1000"><svg id="SvgjsSvg1001" xmlns="http://www.w3.org/2000/svg" viewBox="0 0 1000 1000"><defs><style>.cls-1,.cls-2{stroke-width:0px;}.cls-2{fill:#feed00;}</style></defs><path class="cls-2" d="M500,0h0C775.96,0,1000,224.04,1000,500h0c0,275.96-224.04,500-500,500h0C224.04,1000,0,775.96,0,500H0C0,224.04,224.04,0,500,0Z"></path><path class="cls-1" d="M499.68,666.17c-43.76.75-81.26-14.76-113.26-44.2-3.72-3.42-7.58-7.13-8.27-12.63-.9-7.22.61-13.62,7.34-17.58,6.67-3.92,15.25-2.89,21.03,2.6,19.54,18.58,42.64,30.69,69.03,35.23,34.16,5.88,66.58.11,96.34-18.39,7.6-4.72,14.59-10.15,21.23-16.15,8.04-7.26,18.35-7.4,24.84-.77,6.49,6.64,6.08,16.56-1.51,24.61-21.64,22.96-48.66,36.28-78.91,43.88-12.47,3.14-25.06,3.84-37.87,3.38Z"></path><path class="cls-1" d="M600,500.12c-19.48-.02-33.26-14.12-33.22-34.02.03-18.6,14.72-32.86,33.74-32.77,17.76.09,33.12,15.4,33.08,32.96-.05,19.22-14.56,33.84-33.59,33.82Z"></path><path class="cls-1" d="M433.52,467.21c-.07,18.97-14.28,32.94-33.48,32.91-18.7-.03-33.28-14.57-33.33-33.23-.05-18.58,15.27-33.57,34.28-33.55,18.43.02,32.6,14.78,32.53,33.87Z"></path><path class="cls-1" d="M680.04,920h-357.3c-5.49,0-22.18,0-33.17-12.15-10.34-11.43-9.49-26.86-8.9-33.22l-.54-58.93c-31.03-6.39-58.52-21.19-81.77-44-33.72-33.11-50.95-72.75-51.22-117.81-.55-92.36-.97-182.92.03-275.23.9-81.46,63.42-151.73,145.43-163.46,16.83-2.42,33.15-2.08,48.95-1.79,1.77.04,3.54.07,5.31.11-.02-21.34.23-59.65.4-65.23-.38-16.37,6.74-33.9,19.52-47.07,12.73-13.12,30.03-20.72,47.46-20.87,54.42-.47,110.92-.47,172.73,0,34.47.26,65.33,31.37,66.05,66.57-.02,7.28.04,35.91.08,59.57l.02,7.1c2.99-.04,5.96-.1,8.93-.16,17.5-.35,35.47-.69,54.14,3.31,58.2,12.51,99.92,46.52,124.04,101.12,8.91,20.22,13.22,42.82,13.2,69.09-.08,46.47-.06,92.93-.06,139.39l-.02,120.86c-.1,75.14-41.99,135.94-112.07,162.7-7.17,2.73-14.41,4.73-21.23,6.25-.16,17.38-.33,45.2-.43,62.71.96,11.25-2.15,21.72-9.3,29.47-7.17,7.73-17.34,11.66-30.29,11.66ZM320.4,879.95c.65.04,1.43.06,2.33.06h356.95c.37-80.96.57-82.09.96-84.18,1.54-8.38,8.22-14.86,16.66-16.15,8.57-1.31,19.69-3.3,29.71-7.13,54-20.61,86.29-67.48,86.35-125.37l.02-120.81c0-46.48-.02-92.97.06-139.45.02-20.58-3.18-37.89-9.8-52.9-18.89-42.79-50.25-68.36-95.84-78.16-14.14-3.03-29.12-2.75-44.92-2.42-7.6.16-15.14.28-22.73.11-3.18-.07-12.95-.3-20.29-8.12-3.26-3.49-7.07-9.66-6.68-19.28l-.06-19.57c-.04-23.73-.1-52.44-.08-59.29-.27-13.27-13.34-26.84-26.37-26.93-61.58-.47-117.88-.47-172.09,0-6.81.06-13.76,3.23-19.08,8.72-5.39,5.55-8.39,12.61-8.24,19.38-.21,7.58-.53,64.83-.32,75.67.07,3.79.24,13.79-7.43,21.62-8.35,8.52-18.44,7.91-22.46,7.88-5.42,0-10.84-.11-16.27-.21-14.85-.3-28.89-.56-42.5,1.38-62.66,8.96-110.42,62.4-111.09,124.3-1,92-.58,182.38-.03,274.57.21,34.02,13.41,64.12,39.24,89.49,18.62,18.28,39.78,29.39,64.66,33.95,21.85,3.96,28.91,12.4,29.06,34.67l.58,63.57c0,.72-.03,1.45-.1,2.17-.1.96-.15,1.76-.18,2.44ZM653.14,226.19v.73c.02-.24,0-.49,0-.73Z"></path></svg><style>@media (prefers-color-scheme: light) { :root { filter: none; } }
@media (prefers-color-scheme: dark) { :root { filter: none; } }
</style></svg>